<?xml version="1.0" encoding="UTF-8" standalone="no"?>
<!DOCTYPE svg PUBLIC "-//W3C//DTD SVG 1.1//EN" "http://www.w3.org/Graphics/SVG/1.1/DTD/svg11.dtd">
<svg width="100%" height="100%" viewBox="0 0 626 219" version="1.1" xmlns="http://www.w3.org/2000/svg" xmlns:xlink="http://www.w3.org/1999/xlink" xml:space="preserve" xmlns:serif="http://www.serif.com/" style="fill-rule:evenodd;clip-rule:evenodd;stroke-linecap:round;stroke-linejoin:bevel;stroke-miterlimit:10;">
    <g transform="matrix(1,0,0,1,0,-0.3788)">
        <path d="M12.777,93.445L18.49,95.704M12.777,93.445L7.964,97.262M18.49,95.704L12.777,93.445M18.49,95.704L19.39,101.782M18.49,95.704L23.303,91.886M19.865,95.79L23.074,93.245M19.39,101.782L18.49,95.704M19.39,101.782L25.103,104.041M20.681,101.301L24.489,102.808M19.39,101.782L14.576,105.599M25.103,104.041L29.916,100.223M25.103,104.041L19.39,101.782M24.489,102.808L20.681,101.301M29.916,100.223L35.629,102.483M29.916,100.223L29.016,94.146M28.854,99.345L28.254,95.294M29.916,100.223L25.103,104.041M35.629,102.483L40.442,98.665M35.858,101.125L39.067,98.579M35.629,102.483L36.528,108.56M35.629,102.483L29.916,100.223M40.442,98.665L39.542,92.588M40.442,98.665L35.629,102.483M39.067,98.579L35.858,101.125M39.542,92.588L40.442,98.665M39.542,92.588L33.829,90.328M38.251,93.068L34.443,91.562M33.829,90.328L39.542,92.588M34.443,91.562L38.251,93.068M33.829,90.328L29.016,94.146M29.016,94.146L33.829,90.328M29.016,94.146L29.916,100.223M28.254,95.294L28.854,99.345M29.016,94.146L23.303,91.886M23.303,91.886L18.49,95.704M23.074,93.245L19.865,95.79M23.303,91.886L29.016,94.146M36.528,108.56L35.629,102.483M36.528,108.56L42.241,110.819M42.241,110.819L36.528,108.56M42.241,110.819L43.141,116.897M42.241,110.819L47.054,107.002M43.616,110.906L46.825,108.36M43.141,116.897L42.241,110.819M43.141,116.897L48.854,119.156M44.432,116.417L48.241,117.923M48.854,119.156L43.141,116.897M48.241,117.923L44.432,116.417M48.854,119.156L53.667,115.339M48.854,119.156L49.754,125.234M53.667,115.339L48.854,119.156M53.667,115.339L52.767,109.262M52.606,114.461L52.006,110.409M52.767,109.262L47.054,107.002M52.767,109.262L53.667,115.339M52.006,110.409L52.606,114.461M47.054,107.002L42.241,110.819M46.825,108.36L43.616,110.906M47.054,107.002L52.767,109.262M49.874,124.929L55.587,127.188M49.633,125.538L55.346,127.798M49.754,125.234L48.854,119.156M49.754,125.234L44.94,129.051M55.346,127.798L49.633,125.538" style="fill:none;fill-rule:nonzero;stroke:black;stroke-width:0.27px;"/>
    </g>
    <g transform="matrix(1,0,0,1,0,6.1747)">
        <path d="M55.587,120.635L49.874,118.376M44.94,122.498L49.754,118.68M14.576,99.045L19.39,95.228M14.984,99.558L10.17,103.377M14.169,98.532L9.356,102.35M14.576,99.045L4.95,106.681M9.356,102.35L14.169,98.532M10.17,103.377L14.984,99.558M9.763,102.863L14.576,99.045M4.95,106.681L8.768,111.494M4.95,106.681L9.763,102.863M4.95,106.681L0.137,110.499M4.95,106.681L1.132,101.868M8.768,111.494L4.95,106.681M8.768,111.494L6.508,117.208M8.768,111.494L14.845,110.595M6.508,117.208L8.768,111.494M6.508,117.208L10.326,122.021M10.326,122.021L16.403,121.121M10.326,122.021L6.508,117.208M16.403,121.121L10.326,122.021M16.403,121.121L18.663,115.408M16.403,121.121L20.221,125.934M18.663,115.408L16.403,121.121M18.663,115.408L14.845,110.595M14.845,110.595L8.768,111.494M14.845,110.595L18.663,115.408M20.221,125.934L16.403,121.121M0.137,110.499L4.95,106.681M1.132,101.868L4.95,106.681M7.964,90.708L12.777,86.891" style="fill:none;fill-rule:nonzero;stroke:black;stroke-width:0.27px;"/>
    </g>
    <g transform="matrix(0,-1,-1,0,162.88,123.772)">
        <path d="M33.826,126.995C34.962,126.995 35.885,127.918 35.885,129.054C35.885,130.19 34.962,131.113 33.826,131.113C32.69,131.113 31.767,130.19 31.767,129.054C31.767,127.918 32.69,126.995 33.826,126.995" style="fill:white;fill-rule:nonzero;"/>
    </g>
    <g transform="matrix(0,-1,-1,0,161.155,138.721)">
        <path d="M40.438,118.658C41.575,118.658 42.497,119.581 42.497,120.717C42.497,121.853 41.575,122.776 40.438,122.776C39.302,122.776 38.379,121.853 38.379,120.717C38.379,119.581 39.302,118.658 40.438,118.658" style="fill:white;fill-rule:nonzero;"/>
    </g>
    <g transform="matrix(0,-1,-1,0,147.352,182.573)">
        <path d="M55.463,89.831C56.599,89.831 57.521,90.753 57.521,91.889C57.521,93.026 56.599,93.948 55.463,93.948C54.326,93.948 53.404,93.026 53.404,91.889C53.404,90.753 54.326,89.831 55.463,89.831" style="fill:white;fill-rule:nonzero;"/>
    </g>
    <g transform="matrix(0,-1,-1,0,138.711,105.835)">
        <path d="M12.773,123.879C13.909,123.879 14.832,124.802 14.832,125.938C14.832,127.074 13.909,127.997 12.773,127.997C11.637,127.997 10.714,127.074 10.714,125.938C10.714,124.802 11.637,123.879 12.773,123.879" style="fill:white;fill-rule:nonzero;"/>
    </g>
    <g transform="matrix(0,-1,-1,0,108.107,143.692)">
        <path d="M16.4,89.649C17.536,89.649 18.458,90.571 18.458,91.708C18.458,92.844 17.536,93.766 16.4,93.766C15.263,93.766 14.341,92.844 14.341,91.708C14.341,90.571 15.263,89.649 16.4,89.649" style="fill:white;fill-rule:nonzero;"/>
    </g>
    <g transform="matrix(0,-1,-1,0,110.099,126.429)">
        <path d="M8.764,99.276C9.9,99.276 10.823,100.199 10.823,101.335C10.823,102.471 9.9,103.394 8.764,103.394C7.627,103.394 6.705,102.471 6.705,101.335C6.705,100.199 7.627,99.276 8.764,99.276" style="fill:white;fill-rule:nonzero;"/>
    </g>
    <g transform="matrix(0,-1,-1,0,147.347,144.702)">
        <path d="M36.524,108.764C37.661,108.764 38.583,109.686 38.583,110.823C38.583,111.959 37.661,112.881 36.524,112.881C35.388,112.881 34.466,111.959 34.466,110.823C34.466,109.686 35.388,108.764 36.524,108.764" style="fill:white;fill-rule:nonzero;"/>
    </g>
    <g transform="matrix(0,-1,-1,0,144.939,142.294)">
        <path d="M34.116,108.764C35.253,108.764 36.175,109.686 36.175,110.822C36.175,111.959 35.253,112.881 34.116,112.881C32.98,112.881 32.058,111.959 32.058,110.822C32.058,109.686 32.98,108.764 34.116,108.764" style="fill:white;fill-rule:nonzero;"/>
    </g>
    <text x="32.72px" y="91.061px" style="font-family:'LucidaGrande', 'Lucida Grande', sans-serif;font-weight:500;font-size:2.949px;">N</text>
    <text x="39.332px" y="99.397px" style="font-family:'LucidaGrande', 'Lucida Grande', sans-serif;font-weight:500;font-size:2.949px;">N</text>
    <text x="54.357px" y="128.225px" style="font-family:'LucidaGrande', 'Lucida Grande', sans-serif;font-weight:500;font-size:2.949px;">O</text>
    <text x="11.668px" y="94.177px" style="font-family:'LucidaGrande', 'Lucida Grande', sans-serif;font-weight:500;font-size:2.949px;">O</text>
    <text x="15.294px" y="128.406px" style="font-family:'LucidaGrande', 'Lucida Grande', sans-serif;font-weight:500;font-size:2.949px;">N</text>
    <text x="7.658px" y="118.78px" style="font-family:'LucidaGrande', 'Lucida Grande', sans-serif;font-weight:500;font-size:2.949px;">N</text>
    <text x="33.011px" y="109.292px" style="font-family:'LucidaGrande', 'Lucida Grande', sans-serif;font-weight:500;font-size:2.949px;">H<tspan x="35.419px " y="109.292px ">N</tspan></text>
    <g transform="matrix(1,0,0,1,0,69.095)">
        <path d="M14.075,99.101L15.712,89.644M15.712,89.644L14.075,99.101M15.712,89.644L24.722,86.334M15.712,89.644L8.341,83.497M15.406,87.514L10.492,83.416M24.722,86.334L15.712,89.644M24.722,86.334L26.359,76.876M23.576,84.512L24.668,78.207M26.359,76.876L24.722,86.334M24.668,78.207L23.576,84.512M26.359,76.876L18.988,70.729M26.359,76.876L35.369,73.566M18.988,70.729L26.359,76.876M18.988,70.729L9.979,74.04M17.983,72.633L11.977,74.839M9.979,74.04L8.341,83.497M9.979,74.04L18.988,70.729M11.977,74.839L17.983,72.633M8.341,83.497L15.712,89.644M10.492,83.416L15.406,87.514M8.341,83.497L9.979,74.04M35.369,73.566L42.74,79.713M35.369,73.566L26.359,76.876M42.74,79.713L42.1,89.29M42.74,79.713L52.046,77.362M42.74,79.713L35.369,73.566M42.1,89.29L42.74,79.713M42.1,89.29L51.01,92.858M44.12,88.548L50.06,90.927M51.01,92.858L42.1,89.29M50.06,90.927L44.12,88.548M51.01,92.858L57.157,85.486M57.157,85.486L52.046,77.362M55.087,84.899L51.679,79.483M57.157,85.486L51.01,92.858M57.157,85.486L66.748,85.122M52.046,77.362L42.74,79.713M52.046,77.362L57.157,85.486M51.679,79.483L55.087,84.899M52.046,77.362L56.526,68.874M56.526,68.874L52.046,77.362M56.526,68.874L66.117,68.51M58.179,70.252L64.573,70.009M66.117,68.51L71.228,76.634M66.117,68.51L56.526,68.874M64.573,70.009L58.179,70.252M71.228,76.634L80.819,76.269M71.228,76.634L66.748,85.122M69.208,77.376L66.222,83.035M71.228,76.634L66.117,68.51M80.819,76.269L85.3,67.781M80.819,76.269L71.228,76.634M85.3,67.781L80.188,59.657M85.667,65.66L82.259,60.244M85.3,67.781L80.819,76.269M85.3,67.781L94.891,67.416M80.188,59.657L84.668,51.168M80.188,59.657L85.3,67.781M82.259,60.244L85.667,65.66M84.668,51.168L80.188,59.657M84.668,51.168L94.26,50.804M86.322,52.546L92.716,52.304M94.26,50.804L84.668,51.168M92.716,52.304L86.322,52.546" style="fill:none;fill-rule:nonzero;stroke:black;stroke-width:0.43px;"/>
    </g>
    <g transform="matrix(1,0,0,1,0,79.4879)">
        <path d="M94.26,40.411L99.371,48.535M99.371,48.535L94.26,40.411M99.371,48.535L94.891,57.023M97.351,49.278L94.364,54.937M99.371,48.535L108.962,48.171M94.891,57.023L100.002,65.148M94.891,57.023L85.3,57.388M94.891,57.023L99.371,48.535M94.364,54.937L97.351,49.278M100.002,65.148L95.522,73.636M100.002,65.148L94.891,57.023M100.002,65.148L109.593,64.783M101.546,63.648L107.94,63.405M95.522,73.636L100.002,65.148M95.522,73.636L100.633,81.76M100.633,81.76L95.522,73.636M100.633,81.76L96.153,90.249M100.633,81.76L110.225,81.396M96.587,89.976L101.698,98.1M95.72,90.521L100.831,98.645M96.153,90.249L86.562,90.613M96.153,90.249L100.633,81.76M100.831,98.645L95.72,90.521M101.698,98.1L96.587,89.976M86.562,90.613L96.153,90.249M86.562,90.613L82.082,99.101M86.562,90.613L81.451,82.489M82.082,99.101L86.562,90.613M81.451,82.489L86.562,90.613M110.225,81.396L100.633,81.76M109.593,64.783L100.002,65.148M107.94,63.405L101.546,63.648M109.593,64.783L114.074,56.295M114.074,56.295L109.593,64.783M114.074,56.295L108.962,48.171M112.003,55.708L108.596,50.291M108.962,48.171L99.371,48.535M108.962,48.171L114.074,56.295M108.596,50.291L112.003,55.708M66.748,74.729L71.228,66.241M66.222,72.642L69.208,66.983M66.748,74.729L57.157,75.093" style="fill:none;fill-rule:nonzero;stroke:black;stroke-width:0.43px;"/>
    </g>
    <g transform="matrix(0,-1,-1,0,193.361,214.144)">
        <path d="M94.252,95.892C96.027,95.892 97.469,97.333 97.469,99.108C97.469,100.884 96.027,102.325 94.252,102.325C92.477,102.325 91.036,100.884 91.036,99.108C91.036,97.333 92.477,95.892 94.252,95.892" style="fill:white;fill-rule:nonzero;"/>
    </g>
    <g transform="matrix(0,-1,-1,0,170.438,208.927)">
        <path d="M80.183,87.039C81.958,87.039 83.399,88.481 83.399,90.256C83.399,92.031 81.958,93.472 80.183,93.472C78.407,93.472 76.966,92.031 76.966,90.256C76.966,88.481 78.407,87.039 80.183,87.039" style="fill:white;fill-rule:nonzero;"/>
    </g>
    <g transform="matrix(0,-1,-1,0,64.8783,182.257)">
        <path d="M14.068,47.863C15.694,47.863 17.015,49.184 17.015,50.811C17.015,52.438 15.694,53.758 14.068,53.758C12.441,53.758 11.12,52.438 11.12,50.811C11.12,49.184 12.441,47.863 14.068,47.863" style="fill:white;fill-rule:nonzero;"/>
    </g>
    <g transform="matrix(0,-1,-1,0,142.404,279.111)">
        <path d="M101.257,37.93C103.033,37.93 104.474,39.371 104.474,41.146C104.474,42.922 103.033,44.363 101.257,44.363C99.482,44.363 98.041,42.922 98.041,41.146C98.041,39.371 99.482,37.93 101.257,37.93" style="fill:white;fill-rule:nonzero;"/>
    </g>
    <g transform="matrix(0,-1,-1,0,135.461,256.648)">
        <path d="M86.555,45.69C88.33,45.69 89.771,47.132 89.771,48.907C89.771,50.682 88.33,52.123 86.555,52.123C84.78,52.123 83.339,50.682 83.339,48.907C83.339,47.132 84.78,45.69 86.555,45.69" style="fill:white;fill-rule:nonzero;"/>
    </g>
    <g transform="matrix(0,-1,-1,0,102.716,200.47)">
        <path d="M42.093,57.406C43.868,57.406 45.309,58.847 45.309,60.623C45.309,62.398 43.868,63.839 42.093,63.839C40.317,63.839 38.877,62.398 38.877,60.623C38.877,58.847 40.317,57.406 42.093,57.406" style="fill:white;fill-rule:nonzero;"/>
    </g>
    <g transform="matrix(0,-1,-1,0,112.932,191.533)">
        <path d="M42.733,66.983C44.508,66.983 45.949,68.424 45.949,70.2C45.949,71.975 44.508,73.416 42.733,73.416C40.957,73.416 39.516,71.975 39.516,70.2C39.516,68.424 40.957,66.983 42.733,66.983" style="fill:white;fill-rule:nonzero;"/>
    </g>
    <g transform="matrix(0,-1,-1,0,154.455,226.169)">
        <path d="M80.812,70.427C82.588,70.427 84.028,71.867 84.028,73.643C84.028,75.418 82.588,76.859 80.812,76.859C79.037,76.859 77.596,75.418 77.596,73.643C77.596,71.867 79.037,70.427 80.812,70.427" style="fill:white;fill-rule:nonzero;"/>
    </g>
    <g transform="matrix(0,-1,-1,0,158.218,229.932)">
        <path d="M84.575,70.427C86.35,70.427 87.791,71.867 87.791,73.643C87.791,75.419 86.35,76.859 84.575,76.859C82.799,76.859 81.359,75.419 81.359,73.643C81.359,71.867 82.799,70.427 84.575,70.427" style="fill:white;fill-rule:nonzero;"/>
    </g>
    <g transform="matrix(0,-1,-1,0,161.398,248.632)">
        <path d="M95.515,62.666C97.291,62.666 98.732,64.108 98.732,65.883C98.732,67.658 97.291,69.099 95.515,69.099C93.74,69.099 92.299,67.658 92.299,65.883C92.299,64.108 93.74,62.666 95.515,62.666" style="fill:white;fill-rule:nonzero;"/>
    </g>
    <g transform="matrix(1,0,0,1,0,-26.011)">
        <path d="M109.108,142.133L109.075,136.888M109.075,136.888L109.108,142.133M109.075,136.888L113.601,134.237M109.432,135.767L112.449,134M109.075,136.888L104.516,134.294M113.601,134.237L118.16,136.831M113.601,134.237L109.075,136.888M112.449,134L109.432,135.767M113.601,134.237L113.569,128.991M118.16,136.831L113.601,134.237M113.569,128.991L113.601,134.237M113.569,128.991L109.01,126.397M112.42,129.243L109.38,127.514M109.01,126.397L104.483,129.048M109.01,126.397L113.569,128.991M109.38,127.514L112.42,129.243M104.483,129.048L99.925,126.454M104.483,129.048L104.516,134.294M105.275,129.917L105.297,133.414M104.483,129.048L109.01,126.397M99.925,126.454L95.399,129.104M99.925,126.454L104.483,129.048M95.399,129.104L95.431,134.35M94.617,129.983L94.639,133.481M95.399,129.104L99.925,126.454M95.399,129.104L90.839,126.51M95.431,134.35L90.905,137.001M95.431,134.35L95.399,129.104M94.639,133.481L94.617,129.983M90.905,137.001L95.431,134.35M90.905,137.001L86.345,134.407M90.534,135.885L87.494,134.155M86.345,134.407L90.905,137.001M87.494,134.155L90.534,135.885M86.345,134.407L86.313,129.161M86.313,129.161L86.345,134.407M86.313,129.161L90.839,126.51M87.465,129.398L90.482,127.631M86.313,129.161L81.754,126.567M90.839,126.51L90.806,121.265M90.839,126.51L95.399,129.104M90.839,126.51L86.313,129.161M90.482,127.631L87.465,129.398M90.806,121.265L95.333,118.614M90.806,121.265L90.839,126.51M90.806,121.265L86.248,118.67M89.657,121.517L86.618,119.787M95.333,118.614L90.806,121.265M95.333,118.614L95.3,113.369M95.3,113.369L95.333,118.614M95.3,113.369L99.827,110.717M95.3,113.369L90.741,110.774M99.827,110.717L95.3,113.369M99.827,110.717L99.794,105.473M99.794,105.473L95.235,102.878M99.794,105.473L99.827,110.717M95.235,102.878L99.794,105.473M95.235,102.878L90.709,105.529M90.709,105.529L95.235,102.878M90.709,105.529L90.741,110.774M90.741,110.774L95.3,113.369M90.741,110.774L90.709,105.529M86.248,118.67L90.806,121.265M86.618,119.787L89.657,121.517" style="fill:none;fill-rule:nonzero;stroke:black;stroke-width:0.23px;"/>
    </g>
    <g transform="matrix(1,0,0,1,0,-15.627)">
        <path d="M86.248,108.286L81.722,110.938M81.722,110.938L77.162,108.343M81.722,110.938L86.248,108.286M81.722,110.938L81.754,116.183M82.514,111.807L82.535,115.303M77.162,108.343L81.722,110.938M77.162,108.343L72.636,110.994M72.636,110.994L77.162,108.343M72.636,110.994L68.077,108.4M68.077,108.4L63.551,111.051M68.077,108.4L72.636,110.994M63.551,111.051L68.077,108.4M63.551,111.051L63.976,116.279M63.551,111.051L59.199,108.123M63.976,116.279L63.551,111.051M63.976,116.279L60.153,119.871M60.153,119.871L63.976,116.279M60.153,119.871L54.961,119.121M54.961,119.121L60.153,119.871M54.961,119.121L52.31,114.595M52.31,114.595L54.196,109.7M52.31,114.595L54.961,119.121M54.196,109.7L59.199,108.123M54.196,109.7L52.31,114.595M59.199,108.123L63.551,111.051M59.199,108.123L54.196,109.7M81.754,116.183L81.722,110.938M82.535,115.303L82.514,111.807M81.754,116.183L86.313,118.777M104.516,123.91L109.075,126.504M104.516,123.91L104.483,118.664M105.297,123.03L105.275,119.533" style="fill:none;fill-rule:nonzero;stroke:black;stroke-width:0.23px;"/>
    </g>
    <g transform="matrix(0,-1,-1,0,226.341,228.973)">
        <path d="M118.157,106.574C119.046,106.574 119.768,107.296 119.768,108.185C119.768,109.074 119.046,109.795 118.157,109.795C117.268,109.795 116.546,109.074 116.546,108.185C116.546,107.296 117.268,106.574 118.157,106.574" style="fill:white;fill-rule:nonzero;"/>
    </g>
    <g transform="matrix(0,-1,-1,0,211.986,225.221)">
        <path d="M109.103,101.004C110.141,101.004 110.983,101.845 110.983,102.883C110.983,103.918 110.141,104.761 109.103,104.761C108.066,104.761 107.224,103.918 107.224,102.883C107.224,101.845 108.066,101.004 109.103,101.004" style="fill:white;fill-rule:nonzero;"/>
    </g>
    <g transform="matrix(0,-1,-1,0,218.482,200.359)">
        <path d="M99.921,116.804C100.89,116.804 101.678,117.591 101.678,118.561C101.678,119.532 100.89,120.319 99.921,120.319C98.95,120.319 98.163,119.532 98.163,118.561C98.163,117.591 98.95,116.804 99.921,116.804" style="fill:white;fill-rule:nonzero;"/>
    </g>
    <g transform="matrix(0,-1,-1,0,216.426,198.303)">
        <path d="M97.865,116.804C98.834,116.804 99.622,117.591 99.622,118.562C99.622,119.532 98.834,120.319 97.865,120.319C96.894,120.319 96.107,119.532 96.107,118.562C96.107,117.591 96.894,116.804 97.865,116.804" style="fill:white;fill-rule:nonzero;"/>
    </g>
    <g transform="matrix(0,-1,-1,0,221.73,187.929)">
        <path d="M95.33,124.643C96.3,124.643 97.087,125.43 97.087,126.401C97.087,127.371 96.3,128.158 95.33,128.158C94.36,128.158 93.572,127.371 93.572,126.401C93.572,125.43 94.36,124.643 95.33,124.643" style="fill:white;fill-rule:nonzero;"/>
    </g>
    <g transform="matrix(0,-1,-1,0,206.092,203.761)">
        <path d="M95.427,108.908C96.396,108.908 97.184,109.695 97.184,110.665C97.184,111.636 96.396,112.423 95.427,112.423C94.456,112.423 93.669,111.636 93.669,110.665C93.669,109.695 94.456,108.908 95.427,108.908" style="fill:white;fill-rule:nonzero;"/>
    </g>
    <g transform="matrix(0,-1,-1,0,196.95,194.732)">
        <path d="M86.341,108.851C87.311,108.851 88.099,109.639 88.099,110.609C88.099,111.579 87.311,112.367 86.341,112.367C85.37,112.367 84.583,111.579 84.583,110.609C84.583,109.639 85.37,108.851 86.341,108.851" style="fill:white;fill-rule:nonzero;"/>
    </g>
    <g transform="matrix(0,-1,-1,0,187.128,158.966)">
        <path d="M63.547,121.823C64.517,121.823 65.305,122.611 65.305,123.581C65.305,124.551 64.517,125.339 63.547,125.339C62.576,125.339 61.789,124.551 61.789,123.581C61.789,122.611 62.576,121.823 63.547,121.823" style="fill:white;fill-rule:nonzero;"/>
    </g>
    <g transform="matrix(0,-1,-1,0,203.446,169.871)">
        <path d="M77.159,124.529C78.129,124.529 78.916,125.317 78.916,126.288C78.916,127.258 78.129,128.046 77.159,128.046C76.189,128.046 75.401,127.258 75.401,126.288C75.401,125.317 76.189,124.529 77.159,124.529" style="fill:white;fill-rule:nonzero;"/>
    </g>
    <g transform="matrix(0,-1,-1,0,237.368,172.094)">
        <path d="M95.231,140.379C96.202,140.379 96.989,141.166 96.989,142.137C96.989,143.108 96.202,143.895 95.231,143.895C94.261,143.895 93.473,143.108 93.473,142.137C93.473,141.166 94.261,140.379 95.231,140.379" style="fill:white;fill-rule:nonzero;"/>
    </g>
    <g transform="matrix(1,0,0,1,0,-178.268)">
        <rect x="203.495" y="194.205" width="8.858" height="8.858" style="fill:rgb(0,123,118);"/>
    </g>
    <g transform="matrix(1,0,0,1,0,-178.268)">
        <rect x="213.667" y="194.205" width="8.858" height="8.858" style="fill:rgb(0,123,118);"/>
    </g>
    <g transform="matrix(1,0,0,1,0,-178.268)">
        <rect x="223.838" y="194.205" width="8.858" height="8.858" style="fill:rgb(0,123,118);"/>
    </g>
    <g transform="matrix(1,0,0,1,0,-178.268)">
        <rect x="234.008" y="194.205" width="8.858" height="8.858" style="fill:rgb(0,123,118);"/>
    </g>
    <g transform="matrix(1,0,0,1,0,-178.268)">
        <rect x="244.18" y="194.205" width="8.858" height="8.858" style="fill:rgb(0,123,118);"/>
    </g>
    <g transform="matrix(1,0,0,1,0,-178.268)">
        <rect x="254.351" y="194.205" width="8.858" height="8.858" style="fill:rgb(0,123,118);"/>
    </g>
    <g transform="matrix(1,0,0,1,0,-178.268)">
        <rect x="264.521" y="194.205" width="8.884" height="8.858" style="fill:rgb(0,123,118);"/>
    </g>
    <g transform="matrix(1,0,0,1,0,-157.924)">
        <rect x="203.495" y="184.033" width="8.858" height="8.858" style="fill:rgb(0,123,118);"/>
    </g>
    <g transform="matrix(1,0,0,1,0,-157.924)">
        <rect x="213.667" y="184.033" width="8.858" height="8.858" style="fill:rgb(0,123,118);"/>
    </g>
    <g transform="matrix(1,0,0,1,0,-157.924)">
        <rect x="223.838" y="184.033" width="8.858" height="8.858" style="fill:rgb(0,123,118);"/>
    </g>
    <g transform="matrix(1,0,0,1,0,-157.924)">
        <rect x="234.008" y="184.033" width="8.858" height="8.858" style="fill:rgb(0,123,118);"/>
    </g>
    <g transform="matrix(1,0,0,1,0,-157.924)">
        <rect x="244.18" y="184.033" width="8.858" height="8.858" style="fill:rgb(0,123,118);"/>
    </g>
    <g transform="matrix(1,0,0,1,0,-157.924)">
        <rect x="254.351" y="184.033" width="8.858" height="8.858" style="fill:rgb(0,123,118);"/>
    </g>
    <g transform="matrix(1,0,0,1,0,-157.924)">
        <rect x="264.521" y="184.033" width="8.884" height="8.858" style="fill:rgb(0,123,118);"/>
    </g>
    <g transform="matrix(1,0,0,1,0,-137.584)">
        <rect x="203.495" y="173.863" width="8.858" height="8.858" style="fill:rgb(0,123,118);"/>
    </g>
    <g transform="matrix(1,0,0,1,0,-137.584)">
        <rect x="213.667" y="173.863" width="8.858" height="8.858" style="fill:rgb(0,123,118);"/>
    </g>
    <g transform="matrix(1,0,0,1,0,-137.584)">
        <rect x="223.838" y="173.863" width="8.858" height="8.858" style="fill:rgb(0,123,118);"/>
    </g>
    <g transform="matrix(1,0,0,1,0,-137.584)">
        <rect x="234.008" y="173.863" width="8.858" height="8.858" style="fill:rgb(0,123,118);"/>
    </g>
    <g transform="matrix(1,0,0,1,0,-137.584)">
        <rect x="244.18" y="173.863" width="8.858" height="8.858" style="fill:rgb(0,123,118);"/>
    </g>
    <g transform="matrix(1,0,0,1,0,-137.584)">
        <rect x="254.351" y="173.863" width="8.858" height="8.858" style="fill:rgb(0,123,118);"/>
    </g>
    <g transform="matrix(1,0,0,1,0,-137.584)">
        <rect x="264.521" y="173.863" width="8.884" height="8.858" style="fill:rgb(0,123,118);"/>
    </g>
    <g transform="matrix(1,0,0,1,0,-117.242)">
        <rect x="203.495" y="163.692" width="8.858" height="8.858" style="fill:rgb(0,123,118);"/>
    </g>
    <g transform="matrix(1,0,0,1,0,-117.242)">
        <rect x="213.667" y="163.692" width="8.858" height="8.858" style="fill:rgb(0,123,118);"/>
    </g>
    <g transform="matrix(1,0,0,1,0,-117.242)">
        <rect x="223.838" y="163.692" width="8.858" height="8.858" style="fill:rgb(0,123,118);"/>
    </g>
    <g transform="matrix(1,0,0,1,0,-117.242)">
        <rect x="234.008" y="163.692" width="8.858" height="8.858" style="fill:rgb(0,123,118);"/>
    </g>
    <g transform="matrix(1,0,0,1,0,-117.242)">
        <rect x="244.18" y="163.692" width="8.858" height="8.858" style="fill:rgb(0,123,118);"/>
    </g>
    <g transform="matrix(1,0,0,1,0,-117.242)">
        <rect x="254.351" y="163.692" width="8.858" height="8.858" style="fill:rgb(0,123,118);"/>
    </g>
    <g transform="matrix(1,0,0,1,0,-117.242)">
        <rect x="264.521" y="163.692" width="8.884" height="8.858" style="fill:rgb(0,123,118);"/>
    </g>
    <g transform="matrix(1,0,0,1,0,-96.8978)">
        <rect x="203.495" y="153.52" width="8.858" height="8.858" style="fill:rgb(0,123,118);"/>
    </g>
    <g transform="matrix(1,0,0,1,0,-96.8978)">
        <rect x="213.667" y="153.52" width="8.858" height="8.858" style="fill:rgb(0,123,118);"/>
    </g>
    <g transform="matrix(1,0,0,1,0,-96.8978)">
        <rect x="223.838" y="153.52" width="8.858" height="8.858" style="fill:rgb(0,123,118);"/>
    </g>
    <g transform="matrix(1,0,0,1,0,-96.8978)">
        <rect x="234.008" y="153.52" width="8.858" height="8.858" style="fill:rgb(0,123,118);"/>
    </g>
    <g transform="matrix(1,0,0,1,0,-96.8978)">
        <rect x="244.18" y="153.52" width="8.858" height="8.858" style="fill:rgb(0,123,118);"/>
    </g>
    <g transform="matrix(1,0,0,1,0,-96.8978)">
        <rect x="254.351" y="153.52" width="8.858" height="8.858" style="fill:rgb(0,123,118);"/>
    </g>
    <g transform="matrix(1,0,0,1,0,-96.8978)">
        <rect x="264.521" y="153.52" width="8.884" height="8.858" style="fill:rgb(0,123,118);"/>
    </g>
    <g transform="matrix(1,0,0,1,0,-167.852)">
        <rect x="195.684" y="188.997" width="8.858" height="8.858" style="fill:rgb(0,168,157);"/>
    </g>
    <g transform="matrix(1,0,0,1,0,-167.852)">
        <rect x="205.856" y="188.997" width="8.858" height="8.858" style="fill:rgb(0,168,157);"/>
    </g>
    <g transform="matrix(1,0,0,1,0,-167.852)">
        <rect x="216.026" y="188.997" width="8.858" height="8.858" style="fill:rgb(0,168,157);"/>
    </g>
    <g transform="matrix(1,0,0,1,0,-167.852)">
        <rect x="226.197" y="188.997" width="8.858" height="8.858" style="fill:rgb(0,168,157);"/>
    </g>
    <g transform="matrix(1,0,0,1,0,-167.852)">
        <rect x="236.369" y="188.997" width="8.858" height="8.858" style="fill:rgb(0,168,157);"/>
    </g>
    <g transform="matrix(1,0,0,1,0,-167.852)">
        <rect x="246.539" y="188.997" width="8.858" height="8.858" style="fill:rgb(0,168,157);"/>
    </g>
    <g transform="matrix(1,0,0,1,0,-167.852)">
        <rect x="256.71" y="188.997" width="8.884" height="8.858" style="fill:rgb(0,168,157);"/>
    </g>
    <g transform="matrix(1,0,0,1,0,-147.51)">
        <rect x="195.684" y="178.826" width="8.858" height="8.858" style="fill:rgb(0,168,157);"/>
    </g>
    <g transform="matrix(1,0,0,1,0,-147.51)">
        <rect x="205.856" y="178.826" width="8.858" height="8.858" style="fill:rgb(0,168,157);"/>
    </g>
    <g transform="matrix(1,0,0,1,0,-147.51)">
        <rect x="216.026" y="178.826" width="8.858" height="8.858" style="fill:rgb(0,168,157);"/>
    </g>
    <g transform="matrix(1,0,0,1,0,-147.51)">
        <rect x="226.197" y="178.826" width="8.858" height="8.858" style="fill:rgb(0,168,157);"/>
    </g>
    <g transform="matrix(1,0,0,1,0,-147.51)">
        <rect x="236.369" y="178.826" width="8.858" height="8.858" style="fill:rgb(0,168,157);"/>
    </g>
    <g transform="matrix(1,0,0,1,0,-147.51)">
        <rect x="246.539" y="178.826" width="8.858" height="8.858" style="fill:rgb(0,168,157);"/>
    </g>
    <g transform="matrix(1,0,0,1,0,-147.51)">
        <rect x="256.71" y="178.826" width="8.884" height="8.858" style="fill:rgb(0,168,157);"/>
    </g>
    <g transform="matrix(1,0,0,1,0,-127.17)">
        <rect x="195.684" y="168.656" width="8.858" height="8.858" style="fill:rgb(0,168,157);"/>
    </g>
    <g transform="matrix(1,0,0,1,0,-127.17)">
        <rect x="205.856" y="168.656" width="8.858" height="8.858" style="fill:rgb(0,168,157);"/>
    </g>
    <g transform="matrix(1,0,0,1,0,-127.17)">
        <rect x="216.026" y="168.656" width="8.858" height="8.858" style="fill:rgb(0,168,157);"/>
    </g>
    <g transform="matrix(1,0,0,1,0,-127.17)">
        <rect x="226.197" y="168.656" width="8.858" height="8.858" style="fill:rgb(0,168,157);"/>
    </g>
    <g transform="matrix(1,0,0,1,0,-127.17)">
        <rect x="236.369" y="168.656" width="8.858" height="8.858" style="fill:rgb(0,168,157);"/>
    </g>
    <g transform="matrix(1,0,0,1,0,-127.17)">
        <rect x="246.539" y="168.656" width="8.858" height="8.858" style="fill:rgb(0,168,157);"/>
    </g>
    <g transform="matrix(1,0,0,1,0,-127.17)">
        <rect x="256.71" y="168.656" width="8.884" height="8.858" style="fill:rgb(0,168,157);"/>
    </g>
    <g transform="matrix(1,0,0,1,0,-106.826)">
        <rect x="195.684" y="158.484" width="8.858" height="8.858" style="fill:rgb(0,168,157);"/>
    </g>
    <g transform="matrix(1,0,0,1,0,-106.826)">
        <rect x="205.856" y="158.484" width="8.858" height="8.858" style="fill:rgb(0,168,157);"/>
    </g>
    <g transform="matrix(1,0,0,1,0,-106.826)">
        <rect x="216.026" y="158.484" width="8.858" height="8.858" style="fill:rgb(0,168,157);"/>
    </g>
    <g transform="matrix(1,0,0,1,0,-106.826)">
        <rect x="226.197" y="158.484" width="8.858" height="8.858" style="fill:rgb(0,168,157);"/>
    </g>
    <g transform="matrix(1,0,0,1,0,-106.826)">
        <rect x="236.369" y="158.484" width="8.858" height="8.858" style="fill:rgb(0,168,157);"/>
    </g>
    <g transform="matrix(1,0,0,1,0,-106.826)">
        <rect x="246.539" y="158.484" width="8.858" height="8.858" style="fill:rgb(0,168,157);"/>
    </g>
    <g transform="matrix(1,0,0,1,0,-106.826)">
        <rect x="256.71" y="158.484" width="8.884" height="8.858" style="fill:rgb(0,168,157);"/>
    </g>
    <g transform="matrix(1,0,0,1,0,-86.4838)">
        <rect x="195.684" y="148.313" width="8.858" height="8.858" style="fill:rgb(0,168,157);"/>
    </g>
    <g transform="matrix(1,0,0,1,0,-86.4838)">
        <rect x="205.856" y="148.313" width="8.858" height="8.858" style="fill:rgb(0,168,157);"/>
    </g>
    <g transform="matrix(1,0,0,1,0,-86.4838)">
        <rect x="216.026" y="148.313" width="8.858" height="8.858" style="fill:rgb(0,168,157);"/>
    </g>
    <g transform="matrix(1,0,0,1,0,-86.4838)">
        <rect x="226.197" y="148.313" width="8.858" height="8.858" style="fill:rgb(0,168,157);"/>
    </g>
    <g transform="matrix(1,0,0,1,0,-86.4838)">
        <rect x="236.369" y="148.313" width="8.858" height="8.858" style="fill:rgb(0,168,157);"/>
    </g>
    <g transform="matrix(1,0,0,1,0,-86.4838)">
        <rect x="246.539" y="148.313" width="8.858" height="8.858" style="fill:rgb(0,168,157);"/>
    </g>
    <g transform="matrix(1,0,0,1,0,-86.4838)">
        <rect x="256.71" y="148.313" width="8.884" height="8.858" style="fill:rgb(0,168,157);"/>
    </g>
    <g transform="matrix(1,0,0,1,0,-157.986)">
        <rect x="188.747" y="184.064" width="8.858" height="8.858" style="fill:rgb(82,46,145);"/>
    </g>
    <g transform="matrix(1,0,0,1,0,-157.986)">
        <rect x="198.917" y="184.064" width="8.858" height="8.858" style="fill:rgb(82,46,145);"/>
    </g>
    <g transform="matrix(1,0,0,1,0,-157.986)">
        <rect x="209.088" y="184.064" width="8.858" height="8.858" style="fill:rgb(82,46,145);"/>
    </g>
    <g transform="matrix(1,0,0,1,0,-157.986)">
        <rect x="219.26" y="184.064" width="8.858" height="8.858" style="fill:rgb(82,46,145);"/>
    </g>
    <g transform="matrix(1,0,0,1,0,-157.986)">
        <rect x="229.43" y="184.064" width="8.858" height="8.858" style="fill:rgb(82,46,145);"/>
    </g>
    <g transform="matrix(1,0,0,1,0,-157.986)">
        <rect x="239.602" y="184.064" width="8.858" height="8.858" style="fill:rgb(82,46,145);"/>
    </g>
    <g transform="matrix(1,0,0,1,0,-157.986)">
        <rect x="249.773" y="184.064" width="8.884" height="8.858" style="fill:rgb(82,46,145);"/>
    </g>
    <g transform="matrix(1,0,0,1,0,-137.644)">
        <rect x="188.747" y="173.893" width="8.858" height="8.858" style="fill:rgb(82,46,145);"/>
    </g>
    <g transform="matrix(1,0,0,1,0,-137.644)">
        <rect x="198.917" y="173.893" width="8.858" height="8.858" style="fill:rgb(82,46,145);"/>
    </g>
    <g transform="matrix(1,0,0,1,0,-137.644)">
        <rect x="209.088" y="173.893" width="8.858" height="8.858" style="fill:rgb(82,46,145);"/>
    </g>
    <g transform="matrix(1,0,0,1,0,-137.644)">
        <rect x="219.26" y="173.893" width="8.858" height="8.858" style="fill:rgb(82,46,145);"/>
    </g>
    <g transform="matrix(1,0,0,1,0,-137.644)">
        <rect x="229.43" y="173.893" width="8.858" height="8.858" style="fill:rgb(82,46,145);"/>
    </g>
    <g transform="matrix(1,0,0,1,0,-137.644)">
        <rect x="239.602" y="173.893" width="8.858" height="8.858" style="fill:rgb(82,46,145);"/>
    </g>
    <g transform="matrix(1,0,0,1,0,-137.644)">
        <rect x="249.773" y="173.893" width="8.884" height="8.858" style="fill:rgb(82,46,145);"/>
    </g>
    <g transform="matrix(1,0,0,1,0,-117.302)">
        <rect x="188.747" y="163.722" width="8.858" height="8.858" style="fill:rgb(82,46,145);"/>
    </g>
    <g transform="matrix(1,0,0,1,0,-117.302)">
        <rect x="198.917" y="163.722" width="8.858" height="8.858" style="fill:rgb(82,46,145);"/>
    </g>
    <g transform="matrix(1,0,0,1,0,-117.302)">
        <rect x="209.088" y="163.722" width="8.858" height="8.858" style="fill:rgb(82,46,145);"/>
    </g>
    <g transform="matrix(1,0,0,1,0,-117.302)">
        <rect x="219.26" y="163.722" width="8.858" height="8.858" style="fill:rgb(82,46,145);"/>
    </g>
    <g transform="matrix(1,0,0,1,0,-117.302)">
        <rect x="229.43" y="163.722" width="8.858" height="8.858" style="fill:rgb(82,46,145);"/>
    </g>
    <g transform="matrix(1,0,0,1,0,-117.302)">
        <rect x="239.602" y="163.722" width="8.858" height="8.858" style="fill:rgb(82,46,145);"/>
    </g>
    <g transform="matrix(1,0,0,1,0,-117.302)">
        <rect x="249.773" y="163.722" width="8.884" height="8.858" style="fill:rgb(82,46,145);"/>
    </g>
    <g transform="matrix(1,0,0,1,0,-96.9598)">
        <rect x="188.747" y="153.551" width="8.858" height="8.858" style="fill:rgb(82,46,145);"/>
    </g>
    <g transform="matrix(1,0,0,1,0,-96.9598)">
        <rect x="198.917" y="153.551" width="8.858" height="8.858" style="fill:rgb(82,46,145);"/>
    </g>
    <g transform="matrix(1,0,0,1,0,-96.9598)">
        <rect x="209.088" y="153.551" width="8.858" height="8.858" style="fill:rgb(82,46,145);"/>
    </g>
    <g transform="matrix(1,0,0,1,0,-96.9598)">
        <rect x="219.26" y="153.551" width="8.858" height="8.858" style="fill:rgb(82,46,145);"/>
    </g>
    <g transform="matrix(1,0,0,1,0,-96.9598)">
        <rect x="229.43" y="153.551" width="8.858" height="8.858" style="fill:rgb(82,46,145);"/>
    </g>
    <g transform="matrix(1,0,0,1,0,-96.9598)">
        <rect x="239.602" y="153.551" width="8.858" height="8.858" style="fill:rgb(82,46,145);"/>
    </g>
    <g transform="matrix(1,0,0,1,0,-96.9598)">
        <rect x="249.773" y="153.551" width="8.884" height="8.858" style="fill:rgb(82,46,145);"/>
    </g>
    <g transform="matrix(1,0,0,1,0,-76.6178)">
        <rect x="188.747" y="143.38" width="8.858" height="8.858" style="fill:rgb(82,46,145);"/>
    </g>
    <g transform="matrix(1,0,0,1,0,-76.6178)">
        <rect x="198.917" y="143.38" width="8.858" height="8.858" style="fill:rgb(82,46,145);"/>
    </g>
    <g transform="matrix(1,0,0,1,0,-76.6178)">
        <rect x="209.088" y="143.38" width="8.858" height="8.858" style="fill:rgb(82,46,145);"/>
    </g>
    <g transform="matrix(1,0,0,1,0,-76.6178)">
        <rect x="219.26" y="143.38" width="8.858" height="8.858" style="fill:rgb(82,46,145);"/>
    </g>
    <g transform="matrix(1,0,0,1,0,-76.6178)">
        <rect x="229.43" y="143.38" width="8.858" height="8.858" style="fill:rgb(82,46,145);"/>
    </g>
    <g transform="matrix(1,0,0,1,0,-76.6178)">
        <rect x="239.602" y="143.38" width="8.858" height="8.858" style="fill:rgb(82,46,145);"/>
    </g>
    <g transform="matrix(1,0,0,1,0,-76.6178)">
        <rect x="249.773" y="143.38" width="8.884" height="8.858" style="fill:rgb(82,46,145);"/>
    </g>
    <g transform="matrix(1,0,0,1,0,-147.024)">
        <rect x="183.11" y="178.583" width="8.858" height="8.858" style="fill:rgb(0,162,255);"/>
    </g>
    <g transform="matrix(1,0,0,1,0,-147.024)">
        <rect x="193.281" y="178.583" width="8.858" height="8.858" style="fill:rgb(0,162,255);"/>
    </g>
    <g transform="matrix(1,0,0,1,0,-147.024)">
        <rect x="203.453" y="178.583" width="8.858" height="8.858" style="fill:rgb(0,162,255);"/>
    </g>
    <g transform="matrix(1,0,0,1,0,-147.024)">
        <rect x="213.623" y="178.583" width="8.858" height="8.858" style="fill:rgb(0,162,255);"/>
    </g>
    <g transform="matrix(1,0,0,1,0,-147.024)">
        <rect x="223.794" y="178.583" width="8.858" height="8.858" style="fill:rgb(0,162,255);"/>
    </g>
    <g transform="matrix(1,0,0,1,0,-147.024)">
        <rect x="233.966" y="178.583" width="8.858" height="8.858" style="fill:rgb(0,162,255);"/>
    </g>
    <g transform="matrix(1,0,0,1,0,-147.024)">
        <rect x="244.136" y="178.583" width="8.884" height="8.858" style="fill:rgb(0,162,255);"/>
    </g>
    <g transform="matrix(1,0,0,1,0,-126.68)">
        <rect x="183.11" y="168.411" width="8.858" height="8.858" style="fill:rgb(0,162,255);"/>
    </g>
    <g transform="matrix(1,0,0,1,0,-126.68)">
        <rect x="193.281" y="168.411" width="8.858" height="8.858" style="fill:rgb(0,162,255);"/>
    </g>
    <g transform="matrix(1,0,0,1,0,-126.68)">
        <rect x="203.453" y="168.411" width="8.858" height="8.858" style="fill:rgb(0,162,255);"/>
    </g>
    <g transform="matrix(1,0,0,1,0,-126.68)">
        <rect x="213.623" y="168.411" width="8.858" height="8.858" style="fill:rgb(0,162,255);"/>
    </g>
    <g transform="matrix(1,0,0,1,0,-126.68)">
        <rect x="223.794" y="168.411" width="8.858" height="8.858" style="fill:rgb(0,162,255);"/>
    </g>
    <g transform="matrix(1,0,0,1,0,-126.68)">
        <rect x="233.966" y="168.411" width="8.858" height="8.858" style="fill:rgb(0,162,255);"/>
    </g>
    <g transform="matrix(1,0,0,1,0,-126.68)">
        <rect x="244.136" y="168.411" width="8.884" height="8.858" style="fill:rgb(0,162,255);"/>
    </g>
    <g transform="matrix(1,0,0,1,0,-106.338)">
        <rect x="183.11" y="158.24" width="8.858" height="8.858" style="fill:rgb(0,162,255);"/>
    </g>
    <g transform="matrix(1,0,0,1,0,-106.338)">
        <rect x="193.281" y="158.24" width="8.858" height="8.858" style="fill:rgb(0,162,255);"/>
    </g>
    <g transform="matrix(1,0,0,1,0,-106.338)">
        <rect x="203.453" y="158.24" width="8.858" height="8.858" style="fill:rgb(0,162,255);"/>
    </g>
    <g transform="matrix(1,0,0,1,0,-106.338)">
        <rect x="213.623" y="158.24" width="8.858" height="8.858" style="fill:rgb(0,162,255);"/>
    </g>
    <g transform="matrix(1,0,0,1,0,-106.338)">
        <rect x="223.794" y="158.24" width="8.858" height="8.858" style="fill:rgb(0,162,255);"/>
    </g>
    <g transform="matrix(1,0,0,1,0,-106.338)">
        <rect x="233.966" y="158.24" width="8.858" height="8.858" style="fill:rgb(0,162,255);"/>
    </g>
    <g transform="matrix(1,0,0,1,0,-106.338)">
        <rect x="244.136" y="158.24" width="8.884" height="8.858" style="fill:rgb(0,162,255);"/>
    </g>
    <g transform="matrix(1,0,0,1,0,-85.9978)">
        <rect x="183.11" y="148.07" width="8.858" height="8.858" style="fill:rgb(0,162,255);"/>
    </g>
    <g transform="matrix(1,0,0,1,0,-85.9978)">
        <rect x="193.281" y="148.07" width="8.858" height="8.858" style="fill:rgb(0,162,255);"/>
    </g>
    <g transform="matrix(1,0,0,1,0,-85.9978)">
        <rect x="203.453" y="148.07" width="8.858" height="8.858" style="fill:rgb(0,162,255);"/>
    </g>
    <g transform="matrix(1,0,0,1,0,-85.9978)">
        <rect x="213.623" y="148.07" width="8.858" height="8.858" style="fill:rgb(0,162,255);"/>
    </g>
    <g transform="matrix(1,0,0,1,0,-85.9978)">
        <rect x="223.794" y="148.07" width="8.858" height="8.858" style="fill:rgb(0,162,255);"/>
    </g>
    <g transform="matrix(1,0,0,1,0,-85.9978)">
        <rect x="233.966" y="148.07" width="8.858" height="8.858" style="fill:rgb(0,162,255);"/>
    </g>
    <g transform="matrix(1,0,0,1,0,-85.9978)">
        <rect x="244.136" y="148.07" width="8.884" height="8.858" style="fill:rgb(0,162,255);"/>
    </g>
    <g transform="matrix(1,0,0,1,0,-65.6538)">
        <rect x="183.11" y="137.898" width="8.858" height="8.858" style="fill:rgb(0,162,255);"/>
    </g>
    <g transform="matrix(1,0,0,1,0,-65.6538)">
        <rect x="193.281" y="137.898" width="8.858" height="8.858" style="fill:rgb(0,162,255);"/>
    </g>
    <g transform="matrix(1,0,0,1,0,-65.6538)">
        <rect x="203.453" y="137.898" width="8.858" height="8.858" style="fill:rgb(0,162,255);"/>
    </g>
    <g transform="matrix(1,0,0,1,0,-65.6538)">
        <rect x="213.623" y="137.898" width="8.858" height="8.858" style="fill:rgb(0,162,255);"/>
    </g>
    <g transform="matrix(1,0,0,1,0,-65.6538)">
        <rect x="223.794" y="137.898" width="8.858" height="8.858" style="fill:rgb(0,162,255);"/>
    </g>
    <g transform="matrix(1,0,0,1,0,-65.6538)">
        <rect x="233.966" y="137.898" width="8.858" height="8.858" style="fill:rgb(0,162,255);"/>
    </g>
    <g transform="matrix(1,0,0,1,0,-65.6538)">
        <rect x="244.136" y="137.898" width="8.884" height="8.858" style="fill:rgb(0,162,255);"/>
    </g>
    <g transform="matrix(9.4155,0,0,-16.2974,126.99,98.8576)">
        <rect x="0.06" y="-0.465" width="0.881" height="0.931" style="fill:url(#_Linear1);"/>
    </g>
    <g transform="matrix(9.4155,0,0,-16.2974,138.279,98.8576)">
        <rect x="0.06" y="-0.465" width="0.881" height="0.931" style="fill:url(#_Linear2);"/>
    </g>
    <g transform="matrix(1,0,0,1,0,-21.284)">
        <path d="M170.204,120.142L150.281,132.516L150.281,107.768L170.204,120.142Z" style="fill:rgb(133,111,175);fill-rule:nonzero;"/>
    </g>
    <g transform="matrix(1,0,0,1,0,-0.2762)">
        <path d="M346.274,0.276L605.548,0.276C611.265,0.276 614.696,0.276 616.982,1.231C620.279,2.431 622.877,5.028 624.077,8.325C625.031,10.612 625.031,14.042 625.031,19.76L625.031,199.516C625.031,205.234 625.031,208.664 624.077,210.951C622.877,214.248 620.279,216.845 616.982,218.045C614.696,219 611.265,219 605.548,219L346.274,219C340.556,219 337.125,219 334.838,218.045C331.541,216.845 328.944,214.248 327.744,210.951C326.789,208.664 326.789,205.234 326.789,199.516L326.789,19.76C326.789,14.042 326.789,10.612 327.744,8.325C328.944,5.028 331.541,2.431 334.838,1.231C337.125,0.276 340.556,0.276 346.274,0.276Z" style="fill:rgb(230,230,246);fill-rule:nonzero;"/>
    </g>
    <g transform="matrix(0.707107,0.707107,0.707107,-0.707107,-14.4945,-103.402)">
        <clipPath id="_clip3">
            <rect x="372.742" y="177.572" width="18.369" height="2.25" clip-rule="nonzero"/>
        </clipPath>
        <g clip-path="url(#_clip3)">
            <path d="M373.305,178.697L390.548,178.698" style="fill:none;fill-rule:nonzero;stroke:black;stroke-width:1.13px;stroke-linecap:butt;stroke-linejoin:miter;stroke-miterlimit:4;"/>
        </g>
    </g>
    <g transform="matrix(0.913455,-0.40694,-0.40694,-0.913455,110.215,359.769)">
        <clipPath id="_clip4">
            <path d="M374.33,189.858L397.789,189.859L397.79,187.609L374.33,187.608L374.33,189.858Z" clip-rule="nonzero"/>
        </clipPath>
        <g clip-path="url(#_clip4)">
            <path d="M374.892,188.734L397.226,188.733" style="fill:none;fill-rule:nonzero;stroke:black;stroke-width:1.13px;stroke-linecap:butt;stroke-linejoin:miter;stroke-miterlimit:4;"/>
        </g>
    </g>
    <g transform="matrix(1,0,0,1,0,-150.286)">
        <path d="M359.353,184.643L376.667,184.643" style="fill:none;fill-rule:nonzero;stroke:black;stroke-width:1.13px;stroke-linecap:butt;stroke-linejoin:miter;stroke-miterlimit:4;"/>
    </g>
    <g transform="matrix(-0.707107,-0.707107,-0.707107,0.707107,746.458,158.85)">
        <ellipse cx="360.771" cy="184.672" rx="3.838" ry="3.838" style="fill:rgb(0,118,186);"/>
    </g>
    <g transform="matrix(-0.707172,-0.707042,-0.707042,0.707172,773.784,170.127)">
        <circle cx="376.771" cy="184.672" r="3.838" style="fill:rgb(0,168,157);"/>
    </g>
    <g transform="matrix(-0.707107,-0.707107,-0.707107,0.707107,810.879,168.071)">
        <circle cx="394.892" cy="193.403" r="3.838" style="fill:rgb(255,147,0);"/>
    </g>
    <g transform="matrix(-0.707107,-0.707107,-0.707107,0.707107,783.545,196.968)">
        <circle cx="387.209" cy="173.293" r="3.838" style="fill:rgb(238,34,12);"/>
    </g>
    <g transform="matrix(-0.70741,-0.706803,-0.706803,0.70741,742.058,169.114)">
        <ellipse cx="360.703" cy="178.535" rx="0.825" ry="0.824"/>
    </g>
    <g transform="matrix(-0.707713,-0.7065,-0.7065,0.707713,739.935,174.215)">
        <ellipse cx="360.703" cy="175.452" rx="0.825" ry="0.825"/>
    </g>
    <g transform="matrix(-0.70741,-0.706803,-0.706803,0.70741,737.855,179.268)">
        <ellipse cx="360.703" cy="172.588" rx="0.825" ry="0.824"/>
    </g>
    <g transform="matrix(-0.70741,-0.706804,-0.706804,0.70741,769.338,180.407)">
        <circle cx="376.681" cy="178.535" r="0.825"/>
    </g>
    <g transform="matrix(-0.707713,-0.7065,-0.7065,0.707713,767.219,185.503)">
        <ellipse cx="376.681" cy="175.452" rx="0.825" ry="0.825"/>
    </g>
    <g transform="matrix(-0.707713,-0.7065,-0.7065,0.707713,765.196,190.394)">
        <ellipse cx="376.68" cy="172.588" rx="0.825" ry="0.825"/>
    </g>
    <g transform="matrix(-0.706803,-0.70741,-0.70741,0.706803,778.115,207.502)">
        <ellipse cx="386.675" cy="167" rx="0.825" ry="0.824"/>
    </g>
    <g transform="matrix(-0.70741,-0.706804,-0.706804,0.70741,776.07,212.43)">
        <ellipse cx="386.675" cy="163.917" rx="0.825" ry="0.825"/>
    </g>
    <g transform="matrix(-0.707107,-0.707107,-0.707107,0.707107,773.977,217.486)">
        <circle cx="386.675" cy="161.053" r="0.825"/>
    </g>
    <g transform="matrix(-0.707107,-0.707107,-0.707107,0.707107,806.703,178.201)">
        <circle cx="394.901" cy="187.473" r="0.825"/>
    </g>
    <g transform="matrix(-0.707107,-0.707107,-0.707107,0.707107,804.523,183.466)">
        <circle cx="394.902" cy="184.388" r="0.825"/>
    </g>
    <g transform="matrix(-0.706804,-0.70741,-0.70741,0.706804,802.433,188.528)">
        <ellipse cx="394.902" cy="181.526" rx="0.825" ry="0.825"/>
    </g>
    <g transform="matrix(1,0,0,1,0,-113.777)">
        <rect x="357.755" y="163.227" width="5.244" height="6.323" style="fill:rgb(169,169,169);"/>
    </g>
    <g transform="matrix(1,0,0,1,0,-101.131)">
        <rect x="357.755" y="156.904" width="5.244" height="6.323" style="fill:rgb(108,108,108);"/>
    </g>
    <g transform="matrix(1,0,0,1,0,-88.4853)">
        <rect x="357.755" y="150.581" width="5.244" height="6.323" style="fill:rgb(67,67,67);"/>
    </g>
    <g transform="matrix(1,0,0,1,0,-75.8373)">
        <rect x="357.755" y="144.257" width="5.244" height="6.323"/>
    </g>
    <g transform="matrix(1,0,0,1,0,-113.777)">
        <rect x="357.755" y="163.227" width="5.244" height="6.323" style="fill:rgb(142,109,212);fill-opacity:0;"/>
    </g>
    <g transform="matrix(1,0,0,1,0,-101.131)">
        <rect x="357.755" y="156.904" width="5.244" height="6.323" style="fill:rgb(101,62,83);fill-opacity:0;"/>
    </g>
    <g transform="matrix(1,0,0,1,0,-88.4853)">
        <rect x="357.755" y="150.581" width="5.244" height="6.323" style="fill:rgb(186,163,251);fill-opacity:0;"/>
    </g>
    <g transform="matrix(1,0,0,1,0,-75.8373)">
        <rect x="357.755" y="144.257" width="5.244" height="6.323" style="fill:rgb(86,229,35);fill-opacity:0;"/>
    </g>
    <g transform="matrix(1,0,0,1,0,-107.454)">
        <path d="M357.755,163.227L362.999,163.227" style="fill:none;fill-rule:nonzero;stroke:rgb(245,245,245);stroke-width:0.14px;stroke-linecap:butt;stroke-linejoin:miter;stroke-miterlimit:4;"/>
    </g>
    <g transform="matrix(1,0,0,1,0,-94.808)">
        <path d="M357.755,156.904L362.999,156.904" style="fill:none;fill-rule:nonzero;stroke:rgb(245,245,245);stroke-width:0.14px;stroke-linecap:butt;stroke-linejoin:miter;stroke-miterlimit:4;"/>
    </g>
    <g transform="matrix(1,0,0,1,0,-82.162)">
        <path d="M357.755,150.581L362.999,150.581" style="fill:none;fill-rule:nonzero;stroke:rgb(245,245,245);stroke-width:0.14px;stroke-linecap:butt;stroke-linejoin:miter;stroke-miterlimit:4;"/>
    </g>
    <g transform="matrix(1,0,0,1,0,-113.777)">
        <rect x="373.405" y="163.227" width="6.169" height="6.323" style="fill:rgb(169,169,169);"/>
    </g>
    <g transform="matrix(1,0,0,1,0,-101.131)">
        <rect x="373.405" y="156.904" width="6.169" height="6.323" style="fill:rgb(108,108,108);"/>
    </g>
    <g transform="matrix(1,0,0,1,0,-88.4853)">
        <rect x="373.405" y="150.581" width="6.169" height="6.323" style="fill:rgb(67,67,67);"/>
    </g>
    <g transform="matrix(1,0,0,1,0,-75.8373)">
        <rect x="373.405" y="144.257" width="6.169" height="6.323"/>
    </g>
    <g transform="matrix(1,0,0,1,0,-113.777)">
        <rect x="373.405" y="163.227" width="6.169" height="6.323" style="fill:rgb(105,1,200);fill-opacity:0;"/>
    </g>
    <g transform="matrix(1,0,0,1,0,-101.131)">
        <rect x="373.405" y="156.904" width="6.169" height="6.323" style="fill:rgb(197,75,29);fill-opacity:0;"/>
    </g>
    <g transform="matrix(1,0,0,1,0,-88.4853)">
        <rect x="373.405" y="150.581" width="6.169" height="6.323" style="fill:rgb(221,184,13);fill-opacity:0;"/>
    </g>
    <g transform="matrix(1,0,0,1,0,-75.8373)">
        <rect x="373.405" y="144.257" width="6.169" height="6.323" style="fill:rgb(115,252,181);fill-opacity:0;"/>
    </g>
    <g transform="matrix(1,0,0,1,0,-107.454)">
        <path d="M373.405,163.227L379.574,163.227" style="fill:none;fill-rule:nonzero;stroke:rgb(245,245,245);stroke-width:0.14px;stroke-linecap:butt;stroke-linejoin:miter;stroke-miterlimit:4;"/>
    </g>
    <g transform="matrix(1,0,0,1,0,-94.808)">
        <path d="M373.405,156.904L379.574,156.904" style="fill:none;fill-rule:nonzero;stroke:rgb(245,245,245);stroke-width:0.14px;stroke-linecap:butt;stroke-linejoin:miter;stroke-miterlimit:4;"/>
    </g>
    <g transform="matrix(1,0,0,1,0,-82.162)">
        <path d="M373.405,150.581L379.574,150.581" style="fill:none;fill-rule:nonzero;stroke:rgb(245,245,245);stroke-width:0.14px;stroke-linecap:butt;stroke-linejoin:miter;stroke-miterlimit:4;"/>
    </g>
    <g transform="matrix(1,0,0,1,0,-91.6366)">
        <rect x="383.726" y="152.041" width="5.244" height="6.555" style="fill:rgb(169,169,169);"/>
    </g>
    <g transform="matrix(1,0,0,1,0,-78.5287)">
        <rect x="383.726" y="145.487" width="5.244" height="6.555" style="fill:rgb(108,108,108);"/>
    </g>
    <g transform="matrix(1,0,0,1,0,-65.4186)">
        <rect x="383.726" y="138.932" width="5.244" height="6.555" style="fill:rgb(67,67,67);"/>
    </g>
    <g transform="matrix(1,0,0,1,0,-52.3106)">
        <rect x="383.726" y="132.378" width="5.244" height="6.555"/>
    </g>
    <g transform="matrix(1,0,0,1,0,-91.6366)">
        <rect x="383.726" y="152.041" width="5.244" height="6.555" style="fill:rgb(54,121,221);fill-opacity:0;"/>
    </g>
    <g transform="matrix(1,0,0,1,0,-78.5287)">
        <rect x="383.726" y="145.487" width="5.244" height="6.555" style="fill:rgb(24,25,98);fill-opacity:0;"/>
    </g>
    <g transform="matrix(1,0,0,1,0,-65.4186)">
        <rect x="383.726" y="138.932" width="5.244" height="6.555" style="fill:rgb(77,168,206);fill-opacity:0;"/>
    </g>
    <g transform="matrix(1,0,0,1,0,-52.3106)">
        <rect x="383.726" y="132.378" width="5.244" height="6.555" style="fill:rgb(34,13,14);fill-opacity:0;"/>
    </g>
    <g transform="matrix(1,0,0,1,0,-85.084)">
        <path d="M383.726,152.042L388.97,152.042" style="fill:none;fill-rule:nonzero;stroke:rgb(245,245,245);stroke-width:0.14px;stroke-linecap:butt;stroke-linejoin:miter;stroke-miterlimit:4;"/>
    </g>
    <g transform="matrix(1,0,0,1,0,-71.974)">
        <path d="M383.726,145.487L388.97,145.487" style="fill:none;fill-rule:nonzero;stroke:rgb(245,245,245);stroke-width:0.14px;stroke-linecap:butt;stroke-linejoin:miter;stroke-miterlimit:4;"/>
    </g>
    <g transform="matrix(1,0,0,1,0,-58.864)">
        <path d="M383.726,138.932L388.97,138.932" style="fill:none;fill-rule:nonzero;stroke:rgb(245,245,245);stroke-width:0.14px;stroke-linecap:butt;stroke-linejoin:miter;stroke-miterlimit:4;"/>
    </g>
    <g transform="matrix(1,0,0,1,0,-132.915)">
        <rect x="392.169" y="172.796" width="5.244" height="6.323" style="fill:rgb(169,169,169);"/>
    </g>
    <g transform="matrix(1,0,0,1,0,-120.267)">
        <rect x="392.169" y="166.472" width="5.244" height="6.323" style="fill:rgb(108,108,108);"/>
    </g>
    <g transform="matrix(1,0,0,1,0,-107.621)">
        <rect x="392.169" y="160.149" width="5.244" height="6.323" style="fill:rgb(67,67,67);"/>
    </g>
    <g transform="matrix(1,0,0,1,0,-94.9753)">
        <rect x="392.169" y="153.826" width="5.244" height="6.323"/>
    </g>
    <g transform="matrix(1,0,0,1,0,-132.915)">
        <rect x="392.169" y="172.796" width="5.244" height="6.323" style="fill:rgb(117,199,176);fill-opacity:0;"/>
    </g>
    <g transform="matrix(1,0,0,1,0,-120.267)">
        <rect x="392.169" y="166.472" width="5.244" height="6.323" style="fill:rgb(113,30,150);fill-opacity:0;"/>
    </g>
    <g transform="matrix(1,0,0,1,0,-107.621)">
        <rect x="392.169" y="160.149" width="5.244" height="6.323" style="fill:rgb(148,135,152);fill-opacity:0;"/>
    </g>
    <g transform="matrix(1,0,0,1,0,-94.9753)">
        <rect x="392.169" y="153.826" width="5.244" height="6.323" style="fill:rgb(92,78,227);fill-opacity:0;"/>
    </g>
    <g transform="matrix(1,0,0,1,0,-126.592)">
        <path d="M392.169,172.796L397.413,172.796" style="fill:none;fill-rule:nonzero;stroke:rgb(245,245,245);stroke-width:0.14px;stroke-linecap:butt;stroke-linejoin:miter;stroke-miterlimit:4;"/>
    </g>
    <g transform="matrix(1,0,0,1,0,-113.944)">
        <path d="M392.169,166.472L397.413,166.472" style="fill:none;fill-rule:nonzero;stroke:rgb(245,245,245);stroke-width:0.14px;stroke-linecap:butt;stroke-linejoin:miter;stroke-miterlimit:4;"/>
    </g>
    <g transform="matrix(1,0,0,1,0,-101.298)">
        <path d="M392.169,160.149L397.413,160.149" style="fill:none;fill-rule:nonzero;stroke:rgb(245,245,245);stroke-width:0.14px;stroke-linecap:butt;stroke-linejoin:miter;stroke-miterlimit:4;"/>
    </g>
    <g transform="matrix(1,0,0,1,0,13.0925)">
        <rect x="348.462" y="98.003" width="9.79" height="9.903" style="fill:rgb(230,217,245);"/>
    </g>
    <g transform="matrix(1,0,0,1,0,13.0925)">
        <rect x="358.252" y="98.003" width="9.79" height="9.903" style="fill:rgb(230,217,245);"/>
    </g>
    <g transform="matrix(1,0,0,1,0,13.0925)">
        <rect x="368.042" y="98.003" width="9.79" height="9.903" style="fill:rgb(230,217,245);"/>
    </g>
    <g transform="matrix(1,0,0,1,0,13.0925)">
        <rect x="377.831" y="98.003" width="9.79" height="9.903" style="fill:rgb(230,217,245);"/>
    </g>
    <g transform="matrix(1,0,0,1,0,13.0925)">
        <rect x="387.621" y="98.003" width="9.79" height="9.903" style="fill:rgb(230,217,245);"/>
    </g>
    <g transform="matrix(1,0,0,1,0,13.0925)">
        <rect x="397.412" y="98.003" width="9.79" height="9.903" style="fill:rgb(230,217,245);"/>
    </g>
    <g transform="matrix(0,1,1,0,255.298,-242.206)">
        <path d="M353.02,102.954L363.484,102.954" style="fill:none;fill-rule:nonzero;stroke:rgb(133,111,175);stroke-width:0.56px;stroke-linecap:butt;stroke-linejoin:miter;stroke-miterlimit:4;"/>
    </g>
    <g transform="matrix(0,1,1,0,265.088,-251.996)">
        <path d="M362.81,102.954L373.274,102.954" style="fill:none;fill-rule:nonzero;stroke:rgb(133,111,175);stroke-width:0.56px;stroke-linecap:butt;stroke-linejoin:miter;stroke-miterlimit:4;"/>
    </g>
    <g transform="matrix(0,1,1,0,274.877,-261.785)">
        <path d="M372.599,102.954L383.063,102.954" style="fill:none;fill-rule:nonzero;stroke:rgb(133,111,175);stroke-width:0.56px;stroke-linecap:butt;stroke-linejoin:miter;stroke-miterlimit:4;"/>
    </g>
    <g transform="matrix(0,1,1,0,284.668,-271.576)">
        <path d="M382.39,102.954L392.854,102.954" style="fill:none;fill-rule:nonzero;stroke:rgb(133,111,175);stroke-width:0.56px;stroke-linecap:butt;stroke-linejoin:miter;stroke-miterlimit:4;"/>
    </g>
    <g transform="matrix(0,1,1,0,294.458,-281.366)">
        <path d="M392.18,102.954L402.644,102.954" style="fill:none;fill-rule:nonzero;stroke:rgb(133,111,175);stroke-width:0.56px;stroke-linecap:butt;stroke-linejoin:miter;stroke-miterlimit:4;"/>
    </g>
    <g transform="matrix(0,1,1,0,245.508,-232.416)">
        <path d="M343.23,102.954L353.694,102.954" style="fill:none;fill-rule:nonzero;stroke:rgb(133,111,175);stroke-width:0.56px;stroke-linecap:butt;stroke-linejoin:miter;stroke-miterlimit:4;"/>
    </g>
    <g transform="matrix(0,1,1,0,304.247,-291.155)">
        <path d="M401.969,102.954L412.433,102.954" style="fill:none;fill-rule:nonzero;stroke:rgb(133,111,175);stroke-width:0.56px;stroke-linecap:butt;stroke-linejoin:miter;stroke-miterlimit:4;"/>
    </g>
    <g transform="matrix(1,0,0,1,0,3.19)">
        <path d="M348.181,107.905L407.483,107.905" style="fill:none;fill-rule:nonzero;stroke:rgb(133,111,175);stroke-width:0.56px;stroke-linecap:butt;stroke-linejoin:miter;stroke-miterlimit:4;"/>
    </g>
    <g transform="matrix(1,0,0,1,0,22.995)">
        <path d="M348.181,98.003L407.483,98.003" style="fill:none;fill-rule:nonzero;stroke:rgb(133,111,175);stroke-width:0.56px;stroke-linecap:butt;stroke-linejoin:miter;stroke-miterlimit:4;"/>
    </g>
    <g transform="matrix(1,0,0,1,0,138.098)">
        <rect x="348.462" y="35.848" width="9.79" height="9.205" style="fill:rgb(245,233,210);"/>
    </g>
    <g transform="matrix(1,0,0,1,0,138.098)">
        <rect x="358.252" y="35.848" width="9.79" height="9.205" style="fill:rgb(245,233,210);"/>
    </g>
    <g transform="matrix(1,0,0,1,0,138.098)">
        <rect x="368.042" y="35.848" width="9.79" height="9.205" style="fill:rgb(245,233,210);"/>
    </g>
    <g transform="matrix(1,0,0,1,0,138.098)">
        <rect x="377.831" y="35.848" width="9.79" height="9.205" style="fill:rgb(245,233,210);"/>
    </g>
    <g transform="matrix(1,0,0,1,0,138.098)">
        <rect x="387.621" y="35.848" width="9.79" height="9.205" style="fill:rgb(245,233,210);"/>
    </g>
    <g transform="matrix(1,0,0,1,0,138.098)">
        <rect x="397.412" y="35.848" width="9.79" height="9.205" style="fill:rgb(245,233,210);"/>
    </g>
    <g transform="matrix(0,1,1,0,317.801,-179.703)">
        <path d="M353.368,40.451L363.136,40.451" style="fill:none;fill-rule:nonzero;stroke:rgb(224,170,0);stroke-width:0.56px;stroke-linecap:butt;stroke-linejoin:miter;stroke-miterlimit:4;"/>
    </g>
    <g transform="matrix(0,1,1,0,327.591,-189.493)">
        <path d="M363.158,40.451L372.926,40.451" style="fill:none;fill-rule:nonzero;stroke:rgb(224,170,0);stroke-width:0.56px;stroke-linecap:butt;stroke-linejoin:miter;stroke-miterlimit:4;"/>
    </g>
    <g transform="matrix(0,1,1,0,337.38,-199.282)">
        <path d="M372.947,40.451L382.715,40.451" style="fill:none;fill-rule:nonzero;stroke:rgb(224,170,0);stroke-width:0.56px;stroke-linecap:butt;stroke-linejoin:miter;stroke-miterlimit:4;"/>
    </g>
    <g transform="matrix(0,1,1,0,347.171,-209.073)">
        <path d="M382.738,40.451L392.506,40.451" style="fill:none;fill-rule:nonzero;stroke:rgb(224,170,0);stroke-width:0.56px;stroke-linecap:butt;stroke-linejoin:miter;stroke-miterlimit:4;"/>
    </g>
    <g transform="matrix(0,1,1,0,356.961,-218.863)">
        <path d="M392.528,40.451L402.296,40.451" style="fill:none;fill-rule:nonzero;stroke:rgb(224,170,0);stroke-width:0.56px;stroke-linecap:butt;stroke-linejoin:miter;stroke-miterlimit:4;"/>
    </g>
    <g transform="matrix(0,1,1,0,308.011,-169.913)">
        <path d="M343.578,40.451L353.346,40.451" style="fill:none;fill-rule:nonzero;stroke:rgb(224,170,0);stroke-width:0.56px;stroke-linecap:butt;stroke-linejoin:miter;stroke-miterlimit:4;"/>
    </g>
    <g transform="matrix(0,1,1,0,366.75,-228.652)">
        <path d="M402.317,40.451L412.085,40.451" style="fill:none;fill-rule:nonzero;stroke:rgb(224,170,0);stroke-width:0.56px;stroke-linecap:butt;stroke-linejoin:miter;stroke-miterlimit:4;"/>
    </g>
    <g transform="matrix(1,0,0,1,0,128.894)">
        <path d="M348.181,45.053L407.483,45.053" style="fill:none;fill-rule:nonzero;stroke:rgb(224,170,0);stroke-width:0.56px;stroke-linecap:butt;stroke-linejoin:miter;stroke-miterlimit:4;"/>
    </g>
    <g transform="matrix(1,0,0,1,0,147.303)">
        <path d="M348.181,35.848L407.483,35.848" style="fill:none;fill-rule:nonzero;stroke:rgb(224,170,0);stroke-width:0.56px;stroke-linecap:butt;stroke-linejoin:miter;stroke-miterlimit:4;"/>
    </g>
    <g transform="matrix(1,0,0,1,0,-109.838)">
        <path d="M419.43,164.419L455.807,164.419" style="fill:none;fill-rule:nonzero;stroke:black;stroke-width:1.13px;stroke-linecap:butt;stroke-linejoin:miter;stroke-miterlimit:4;"/>
    </g>
    <g transform="matrix(1,0,0,1,0,-109.838)">
        <path d="M455.245,167.119L460.645,164.419L455.245,161.719L455.245,167.119Z" style="fill-rule:nonzero;"/>
    </g>
    <g transform="matrix(1,0,0,1,0,11.732)">
        <path d="M419.43,103.634L455.807,103.634" style="fill:none;fill-rule:nonzero;stroke:black;stroke-width:1.13px;stroke-linecap:butt;stroke-linejoin:miter;stroke-miterlimit:4;"/>
    </g>
    <g transform="matrix(1,0,0,1,0,11.732)">
        <path d="M455.245,106.334L460.645,103.634L455.245,100.934L455.245,106.334Z" style="fill-rule:nonzero;"/>
    </g>
    <g transform="matrix(1,0,0,1,0,139.457)">
        <path d="M419.43,39.772L455.807,39.772" style="fill:none;fill-rule:nonzero;stroke:black;stroke-width:1.13px;stroke-linecap:butt;stroke-linejoin:miter;stroke-miterlimit:4;"/>
    </g>
    <g transform="matrix(1,0,0,1,0,139.457)">
        <path d="M455.245,42.472L460.645,39.772L455.245,37.072L455.245,42.472Z" style="fill-rule:nonzero;"/>
    </g>
    <text x="92.525px" y="121.633px" style="font-family:'LucidaGrande', 'Lucida Grande', sans-serif;font-weight:500;font-size:4.607px;">N</text>
    <text x="78.454px" y="130.486px" style="font-family:'LucidaGrande', 'Lucida Grande', sans-serif;font-weight:500;font-size:4.607px;">N</text>
    <text x="12.916px" y="169.93px" style="font-family:'LucidaGrande', 'Lucida Grande', sans-serif;font-weight:500;font-size:4.607px;">F</text>
    <text x="99.53px" y="179.595px" style="font-family:'LucidaGrande', 'Lucida Grande', sans-serif;font-weight:500;font-size:4.607px;">O</text>
    <text x="84.827px" y="171.835px" style="font-family:'LucidaGrande', 'Lucida Grande', sans-serif;font-weight:500;font-size:4.607px;">N</text>
    <text x="40.365px" y="160.119px" style="font-family:'LucidaGrande', 'Lucida Grande', sans-serif;font-weight:500;font-size:4.607px;">N</text>
    <text x="41.006px" y="150.542px" style="font-family:'LucidaGrande', 'Lucida Grande', sans-serif;font-weight:500;font-size:4.607px;">N</text>
    <text x="79.085px" y="147.099px" style="font-family:'LucidaGrande', 'Lucida Grande', sans-serif;font-weight:500;font-size:4.607px;">N<tspan x="82.848px " y="147.099px ">H</tspan></text>
    <text x="93.788px" y="154.858px" style="font-family:'LucidaGrande', 'Lucida Grande', sans-serif;font-weight:500;font-size:4.607px;">O</text>
    <text x="117.527px" y="111.768px" style="font-family:'LucidaGrande', 'Lucida Grande', sans-serif;font-weight:500;font-size:2.518px;">F</text>
    <text x="107.95px" y="117.07px" style="font-family:'LucidaGrande', 'Lucida Grande', sans-serif;font-weight:500;font-size:2.518px;">Cl</text>
    <text x="96.92px" y="101.39px" style="font-family:'LucidaGrande', 'Lucida Grande', sans-serif;font-weight:500;font-size:2.518px;">H<tspan x="98.976px " y="101.39px ">N</tspan></text>
    <text x="94.385px" y="93.55px" style="font-family:'LucidaGrande', 'Lucida Grande', sans-serif;font-weight:500;font-size:2.518px;">O</text>
    <g>
        <text x="94.482px" y="109.287px" style="font-family:'LucidaGrande', 'Lucida Grande', sans-serif;font-weight:500;font-size:2.518px;">N</text>
        <text x="85.397px" y="109.343px" style="font-family:'LucidaGrande', 'Lucida Grande', sans-serif;font-weight:500;font-size:2.518px;">N</text>
    </g>
    <text x="62.602px" y="96.371px" style="font-family:'LucidaGrande', 'Lucida Grande', sans-serif;font-weight:500;font-size:2.518px;">N</text>
    <text x="76.214px" y="93.664px" style="font-family:'LucidaGrande', 'Lucida Grande', sans-serif;font-weight:500;font-size:2.518px;">O</text>
    <text x="94.286px" y="77.815px" style="font-family:'LucidaGrande', 'Lucida Grande', sans-serif;font-weight:500;font-size:2.518px;">O</text>
    <g>
        <text x="24.91px" y="56.194px" style="font-family:'HelveticaNeue-CondensedBold', 'Helvetica Neue';font-weight:700;font-stretch:condensed;font-size:11.813px;fill:rgb(133,111,175);">Cell line-based</text>
        <text x="28.944px" y="69.387px" style="font-family:'HelveticaNeue-CondensedBold', 'Helvetica Neue';font-weight:700;font-stretch:condensed;font-size:11.813px;fill:rgb(133,111,175);">against EGFR</text>
    </g>
    <text x="39.766px" y="41.635px" style="font-family:'HelveticaNeue-CondensedBold', 'Helvetica Neue';font-weight:700;font-stretch:condensed;font-size:13.5px;fill:rgb(88,46,145);">SMILES</text>
    <g>
        <text x="184.401px" y="126.747px" style="font-family:'HelveticaNeue-CondensedBold', 'Helvetica Neue';font-weight:700;font-stretch:condensed;font-size:10.125px;fill:rgb(133,111,175);">16 F<tspan x="201.057px 203.487px " y="126.747px 126.747px ">in</tspan>gerprints from</text>
        <text x="180.25px" y="139.122px" style="font-family:'HelveticaNeue-CondensedBold', 'Helvetica Neue';font-weight:700;font-stretch:condensed;font-size:10.125px;fill:rgb(133,111,175);">CDK, <tspan x="201.796px " y="139.122px ">R</tspan>DKit</text>
        <text x="224.101px" y="139.122px" style="font-family:'HelveticaNeue-CondensedBold', 'Helvetica Neue';font-weight:700;font-stretch:condensed;font-size:10.125px;fill:rgb(133,111,175);">,</text>
        <text x="228.212px" y="139.122px" style="font-family:'HelveticaNeue-CondensedBold', 'Helvetica Neue';font-weight:700;font-stretch:condensed;font-size:10.125px;fill:rgb(133,111,175);">and PyBEL</text>
    </g>
    <g>
        <text x="186.52px" y="101.518px" style="font-family:'HelveticaNeue-CondensedBold', 'Helvetica Neue';font-weight:700;font-stretch:condensed;font-size:11.813px;fill:rgb(88,46,145);">Mixed Molecular</text>
        <text x="182.675px" y="114.711px" style="font-family:'HelveticaNeue-CondensedBold', 'Helvetica Neue';font-weight:700;font-stretch:condensed;font-size:11.813px;fill:rgb(88,46,145);">Descriptor P<tspan x="240.166px 245.848px " y="114.711px 114.711px ">at</tspan>tern</text>
    </g>
    <g>
        <text x="187.305px" y="160.14px" style="font-family:'HelveticaNeue-CondensedBold', 'Helvetica Neue';font-weight:700;font-stretch:condensed;font-size:11.813px;fill:rgb(88,46,145);">Atomic F<tspan x="228.318px 233.787px " y="160.14px 160.14px ">ea</tspan>tures</text>
        <text x="185.741px" y="172.625px" style="font-family:'HelveticaNeue-CondensedBold', 'Helvetica Neue';font-weight:700;font-stretch:condensed;font-size:10.125px;fill:rgb(133,111,175);">GraphConv F<tspan x="236.467px 241.155px " y="172.625px 172.625px ">ea</tspan>ture</text>
        <text x="191.72px" y="185px" style="font-family:'HelveticaNeue-CondensedBold', 'Helvetica Neue';font-weight:700;font-stretch:condensed;font-size:10.125px;fill:rgb(133,111,175);">from DeepChem</text>
    </g>
    <g>
        <text x="352.106px" y="118.144px" style="font-family:'HelveticaNeue-Medium', 'Helvetica Neue', sans-serif;font-weight:500;font-size:4.5px;">0 <tspan x="361.896px " y="118.144px ">1</tspan></text>
        <text x="370.687px" y="118.144px" style="font-family:'HelveticaNeue-Medium', 'Helvetica Neue', sans-serif;font-weight:500;font-size:4.5px;"></text>
        <text x="381.476px" y="118.144px" style="font-family:'HelveticaNeue-Medium', 'Helvetica Neue', sans-serif;font-weight:500;font-size:4.5px;">1 <tspan x="391.266px 393.768px 401.056px " y="118.144px 118.144px 118.144px ">0 1</tspan></text>
    </g>
    <g>
        <text x="352.106px" y="180.996px" style="font-family:'HelveticaNeue-Medium', 'Helvetica Neue', sans-serif;font-weight:500;font-size:4.5px;">0 <tspan x="361.896px " y="180.996px ">1</tspan></text>
        <text x="370.687px" y="180.996px" style="font-family:'HelveticaNeue-Medium', 'Helvetica Neue', sans-serif;font-weight:500;font-size:4.5px;"></text>
        <text x="381.476px" y="180.996px" style="font-family:'HelveticaNeue-Medium', 'Helvetica Neue', sans-serif;font-weight:500;font-size:4.5px;">1 <tspan x="391.266px 393.768px 401.056px " y="180.996px 180.996px 180.996px ">0 1</tspan></text>
    </g>
    <text x="421.458px" y="51.005px" style="font-family:'HelveticaNeue-Bold', 'Helvetica Neue';font-weight:700;font-size:7.875px;">C-SGEL</text>
    <g>
        <text x="427.49px" y="104.096px" style="font-family:'HelveticaNeue-Bold', 'Helvetica Neue';font-weight:700;font-size:7.875px;">Conv</text>
        <text x="426.766px" y="111.792px" style="font-family:'HelveticaNeue-Bold', 'Helvetica Neue';font-weight:700;font-size:7.875px;">Layer</text>
    </g>
    <g>
        <text x="431.944px" y="168.188px" style="font-family:'HelveticaNeue-Bold', 'Helvetica Neue';font-weight:700;font-size:7.875px;">FC</text>
        <text x="426.766px" y="175.883px" style="font-family:'HelveticaNeue-Bold', 'Helvetica Neue';font-weight:700;font-size:7.875px;">Layer</text>
    </g>
    <text x="346.703px" y="17.484px" style="font-family:'HelveticaNeue-Bold', 'Helvetica Neue';font-weight:700;font-size:7.875px;">Graph Embedding</text>
    <g>
        <text x="354.86px" y="132.425px" style="font-family:'HelveticaNeue-Bold', 'Helvetica Neue';font-weight:700;font-size:7.875px;fill:rgb(94,94,94);">Non-hashed</text>
        <text x="335.409px" y="140.121px" style="font-family:'HelveticaNeue-Bold', 'Helvetica Neue';font-weight:700;font-size:7.875px;fill:rgb(94,94,94);">Molecular Fingerprints</text>
    </g>
    <text x="350.336px" y="167.469px" style="font-family:'HelveticaNeue-Bold', 'Helvetica Neue';font-weight:700;font-size:7.875px;">FC Layer Input</text>
    <g>
        <text x="553.782px" y="85.217px" style="font-family:'HelveticaNeue-Bold', 'Helvetica Neue';font-weight:700;font-size:7.875px;">pIC</text>
        <text x="566.75px" y="85.786px" style="font-family:'HelveticaNeue-Bold', 'Helvetica Neue';font-weight:700;font-size:5.25px;">50</text>
        <text x="574.777px" y="85.217px" style="font-family:'HelveticaNeue-Bold', 'Helvetica Neue';font-weight:700;font-size:7.875px;">Pr<tspan x="582.95px 587.47px " y="85.217px 85.217px ">ed</tspan>iction</text>
    </g>
    <g transform="matrix(0,-1,1,0,0,0)">
        <text x="-130.227px" y="552.233px" style="font-family:'HelveticaNeue-Bold', 'Helvetica Neue';font-weight:700;font-size:5.062px;fill:rgb(88,46,145);">%Inhibition</text>
    </g>
    <text x="558.029px" y="145.703px" style="font-family:'HelveticaNeue-Bold', 'Helvetica Neue';font-weight:700;font-size:5.062px;fill:rgb(88,46,145);">Log of Concentration</text>
    <g>
        <text x="363.539px" y="194.699px" style="font-family:'HelveticaNeue-Bold', 'Helvetica Neue';font-weight:700;font-size:7.875px;fill:rgb(94,94,94);">Hashed</text>
        <text x="335.409px" y="202.395px" style="font-family:'HelveticaNeue-Bold', 'Helvetica Neue';font-weight:700;font-size:7.875px;fill:rgb(94,94,94);">Molecular Fingerprints</text>
    </g>
    <text x="345.883px" y="104.321px" style="font-family:'HelveticaNeue-Bold', 'Helvetica Neue';font-weight:700;font-size:7.875px;">Conv Layer Input</text>
    <g transform="matrix(-0.707107,-0.707107,-0.707107,0.707107,937.869,235.895)">
        <circle cx="472.433" cy="185.791" r="3.813" style="fill:rgb(255,199,196);stroke:rgb(207,10,63);stroke-width:0.56px;stroke-linecap:butt;stroke-linejoin:miter;stroke-miterlimit:4;"/>
    </g>
    <g transform="matrix(-0.707041,-0.707172,-0.707172,0.707041,931,252.473)">
        <ellipse cx="472.434" cy="176.105" rx="3.813" ry="3.813" style="fill:rgb(255,199,196);stroke:rgb(207,10,63);stroke-width:0.56px;stroke-linecap:butt;stroke-linejoin:miter;stroke-miterlimit:4;"/>
    </g>
    <g transform="matrix(-0.707041,-0.707172,-0.707172,0.707041,920.382,278.104)">
        <ellipse cx="472.434" cy="161.09" rx="3.813" ry="3.813" style="fill:rgb(255,199,196);stroke:rgb(207,10,63);stroke-width:0.56px;stroke-linecap:butt;stroke-linejoin:miter;stroke-miterlimit:4;"/>
    </g>
    <g transform="matrix(-0.707107,-0.707107,-0.707107,0.707107,913.707,294.227)">
        <circle cx="472.433" cy="151.622" r="3.813" style="fill:rgb(255,199,196);stroke:rgb(207,10,63);stroke-width:0.56px;stroke-linecap:butt;stroke-linejoin:miter;stroke-miterlimit:4;"/>
    </g>
    <g transform="matrix(-0.706642,-0.707571,-0.707571,0.706642,927.141,261.336)">
        <ellipse cx="472.347" cy="171.028" rx="0.539" ry="0.539"/>
    </g>
    <g transform="matrix(-0.706642,-0.707571,-0.707571,0.706642,925.717,264.772)">
        <ellipse cx="472.347" cy="169.015" rx="0.539" ry="0.539"/>
    </g>
    <g transform="matrix(-0.706642,-0.707571,-0.707571,0.706642,924.394,267.962)">
        <ellipse cx="472.347" cy="167.145" rx="0.539" ry="0.539"/>
    </g>
    <g transform="matrix(1,0,0,1,0,-119.305)">
        <path d="M468.844,145.692L465.361,145.692L465.361,192.613L469.023,192.613" style="fill:none;fill-rule:nonzero;stroke:black;stroke-width:0.56px;stroke-linecap:butt;stroke-linejoin:miter;stroke-miterlimit:4;"/>
    </g>
    <g transform="matrix(1,0,0,1,0,-119.305)">
        <path d="M475.85,145.692L479.333,145.692L479.333,192.613L475.671,192.613" style="fill:none;fill-rule:nonzero;stroke:black;stroke-width:0.56px;stroke-linecap:butt;stroke-linejoin:miter;stroke-miterlimit:4;"/>
    </g>
    <g transform="matrix(-0.707107,-0.707107,-0.707107,0.707107,891.232,348.068)">
        <ellipse cx="472.347" cy="120.046" rx="3.774" ry="3.773" style="fill:rgb(230,217,245);stroke:rgb(133,111,175);stroke-width:0.56px;stroke-linecap:butt;stroke-linejoin:miter;stroke-miterlimit:4;"/>
    </g>
    <g transform="matrix(-0.707173,-0.707041,-0.707041,0.707173,884.477,364.395)">
        <ellipse cx="472.347" cy="110.46" rx="3.774" ry="3.774" style="fill:rgb(230,217,245);stroke:rgb(133,111,175);stroke-width:0.56px;stroke-linecap:butt;stroke-linejoin:miter;stroke-miterlimit:4;"/>
    </g>
    <g transform="matrix(-0.707127,-0.707087,-0.707087,0.707127,873.954,389.788)">
        <ellipse cx="472.347" cy="95.601" rx="3.774" ry="3.774" style="fill:rgb(230,217,245);stroke:rgb(133,111,175);stroke-width:0.56px;stroke-linecap:butt;stroke-linejoin:miter;stroke-miterlimit:4;"/>
    </g>
    <g transform="matrix(-0.707113,-0.7071,-0.7071,0.707113,867.323,405.793)">
        <ellipse cx="472.347" cy="86.23" rx="3.774" ry="3.774" style="fill:rgb(230,217,245);stroke:rgb(133,111,175);stroke-width:0.56px;stroke-linecap:butt;stroke-linejoin:miter;stroke-miterlimit:4;"/>
    </g>
    <g transform="matrix(-0.706637,-0.707576,-0.707576,0.706637,880.551,373.71)">
        <ellipse cx="472.347" cy="105.185" rx="0.533" ry="0.533"/>
    </g>
    <g transform="matrix(-0.706637,-0.707576,-0.707576,0.706637,879.142,377.109)">
        <ellipse cx="472.347" cy="103.192" rx="0.533" ry="0.533"/>
    </g>
    <g transform="matrix(-0.707576,-0.706637,-0.706637,0.707576,878.18,379.729)">
        <ellipse cx="472.347" cy="101.342" rx="0.533" ry="0.533"/>
    </g>
    <g transform="matrix(1,0,0,1,0,12.4737)">
        <path d="M468.88,80.045L465.434,80.045L465.434,126.481L469.058,126.481" style="fill:none;fill-rule:nonzero;stroke:black;stroke-width:0.56px;stroke-linecap:butt;stroke-linejoin:miter;stroke-miterlimit:4;"/>
    </g>
    <g transform="matrix(1,0,0,1,0,12.4737)">
        <path d="M475.814,80.045L479.261,80.045L479.261,126.481L475.637,126.481" style="fill:none;fill-rule:nonzero;stroke:black;stroke-width:0.56px;stroke-linecap:butt;stroke-linejoin:miter;stroke-miterlimit:4;"/>
    </g>
    <g transform="matrix(-0.707133,-0.70708,-0.70708,0.707133,846.951,454.984)">
        <ellipse cx="472.347" cy="57.408" rx="3.774" ry="3.774" style="fill:rgb(245,233,210);stroke:rgb(224,170,0);stroke-width:0.56px;stroke-linecap:butt;stroke-linejoin:miter;stroke-miterlimit:4;"/>
    </g>
    <g transform="matrix(-0.707127,-0.707087,-0.707087,0.707127,840.17,471.353)">
        <ellipse cx="472.347" cy="47.822" rx="3.774" ry="3.774" style="fill:rgb(245,233,210);stroke:rgb(224,170,0);stroke-width:0.56px;stroke-linecap:butt;stroke-linejoin:miter;stroke-miterlimit:4;"/>
    </g>
    <g transform="matrix(-0.707133,-0.70708,-0.70708,0.707133,829.667,496.715)">
        <ellipse cx="472.347" cy="32.963" rx="3.774" ry="3.774" style="fill:rgb(245,233,210);stroke:rgb(224,170,0);stroke-width:0.56px;stroke-linecap:butt;stroke-linejoin:miter;stroke-miterlimit:4;"/>
    </g>
    <g transform="matrix(-0.70714,-0.707074,-0.707074,0.70714,823.044,512.709)">
        <ellipse cx="472.347" cy="23.592" rx="3.774" ry="3.774" style="fill:rgb(245,233,210);stroke:rgb(224,170,0);stroke-width:0.56px;stroke-linecap:butt;stroke-linejoin:miter;stroke-miterlimit:4;"/>
    </g>
    <g transform="matrix(-0.707013,-0.707201,-0.707201,0.707013,836.268,480.714)">
        <ellipse cx="472.347" cy="42.372" rx="0.533" ry="0.533"/>
    </g>
    <g transform="matrix(-0.706966,-0.707247,-0.707247,0.706966,834.839,484.139)">
        <ellipse cx="472.347" cy="40.38" rx="0.533" ry="0.533"/>
    </g>
    <g transform="matrix(-0.706966,-0.707247,-0.707247,0.706966,833.53,487.297)">
        <ellipse cx="472.347" cy="38.53" rx="0.533" ry="0.533"/>
    </g>
    <g transform="matrix(1,0,0,1,0,138.098)">
        <path d="M468.88,17.233L465.434,17.233L465.434,63.669L469.058,63.669" style="fill:none;fill-rule:nonzero;stroke:black;stroke-width:0.56px;stroke-linecap:butt;stroke-linejoin:miter;stroke-miterlimit:4;"/>
    </g>
    <g transform="matrix(1,0,0,1,0,138.098)">
        <path d="M475.814,17.233L479.261,17.233L479.261,63.669L475.637,63.669" style="fill:none;fill-rule:nonzero;stroke:black;stroke-width:0.56px;stroke-linecap:butt;stroke-linejoin:miter;stroke-miterlimit:4;"/>
    </g>
    <g>
        <clipPath id="_clip5">
            <path d="M487.179,51.85L501.191,77.329L495.473,80.474L481.461,54.994L487.179,51.85Z" clip-rule="nonzero"/>
        </clipPath>
        <g clip-path="url(#_clip5)">
            <g transform="matrix(0.481877,0.876239,0.876239,-0.481877,118.184,-290.785)">
                <path d="M478.603,154.957L501.718,154.957" style="fill:none;fill-rule:nonzero;stroke:black;stroke-width:1.13px;stroke-linecap:butt;stroke-linejoin:miter;stroke-miterlimit:4;"/>
            </g>
            <g transform="matrix(1,0,0,1,0,-68.215)">
                <path d="M493.093,143.193L498.061,146.624L497.825,140.591L493.093,143.193Z" style="fill-rule:nonzero;"/>
            </g>
        </g>
    </g>
    <g>
        <clipPath id="_clip6">
            <path d="M481.597,176.922L497.158,151.501L502.723,154.908L487.162,180.329L481.597,176.922Z" clip-rule="nonzero"/>
        </clipPath>
        <g clip-path="url(#_clip6)">
            <g transform="matrix(0.522084,-0.852894,-0.852894,-0.522084,278.124,613.299)">
                <path d="M478.976,51.022L502.818,51.022" style="fill:none;fill-rule:nonzero;stroke:black;stroke-width:1.13px;stroke-linecap:butt;stroke-linejoin:miter;stroke-miterlimit:4;"/>
            </g>
            <g transform="matrix(1,0,0,1,0,94.3835)">
                <path d="M499.13,65.316L499.647,59.301L494.525,62.497L499.13,65.316Z" style="fill-rule:nonzero;"/>
            </g>
        </g>
    </g>
    <g transform="matrix(1,0,0,1,0,13.094)">
        <path d="M482.627,102.953L498.114,102.953" style="fill:none;fill-rule:nonzero;stroke:black;stroke-width:1.13px;stroke-linecap:butt;stroke-linejoin:miter;stroke-miterlimit:4;"/>
    </g>
    <g transform="matrix(1,0,0,1,0,13.094)">
        <path d="M497.552,105.653L502.952,102.953L497.552,100.253L497.552,105.653Z" style="fill-rule:nonzero;"/>
    </g>
    <g transform="matrix(-0.707107,-0.707107,-0.707107,0.707107,967.007,366.204)">
        <circle cx="513.991" cy="126.672" r="3.769" style="fill:rgb(255,199,196);stroke:rgb(207,10,63);stroke-width:0.56px;stroke-linecap:butt;stroke-linejoin:miter;stroke-miterlimit:4;"/>
    </g>
    <g transform="matrix(-0.70704,-0.707173,-0.707173,0.70704,960.211,382.59)">
        <ellipse cx="513.991" cy="117.097" rx="3.769" ry="3.769" style="fill:rgb(255,199,196);stroke:rgb(207,10,63);stroke-width:0.56px;stroke-linecap:butt;stroke-linejoin:miter;stroke-miterlimit:4;"/>
    </g>
    <g transform="matrix(-0.707107,-0.707107,-0.707107,0.707107,953.466,398.892)">
        <ellipse cx="513.99" cy="107.524" rx="3.769" ry="3.769" style="fill:rgb(230,217,245);stroke:rgb(133,111,175);stroke-width:0.56px;stroke-linecap:butt;stroke-linejoin:miter;stroke-miterlimit:4;"/>
    </g>
    <g transform="matrix(-0.707074,-0.70714,-0.70714,0.707074,946.684,415.256)">
        <ellipse cx="513.991" cy="97.95" rx="3.769" ry="3.769" style="fill:rgb(230,217,245);stroke:rgb(133,111,175);stroke-width:0.56px;stroke-linecap:butt;stroke-linejoin:miter;stroke-miterlimit:4;"/>
    </g>
    <g transform="matrix(-0.707074,-0.70714,-0.70714,0.707074,939.913,431.601)">
        <ellipse cx="513.991" cy="88.375" rx="3.769" ry="3.769" style="fill:rgb(245,233,210);stroke:rgb(224,170,0);stroke-width:0.56px;stroke-linecap:butt;stroke-linejoin:miter;stroke-miterlimit:4;"/>
    </g>
    <g transform="matrix(-0.707074,-0.70714,-0.70714,0.707074,933.143,447.944)">
        <ellipse cx="513.991" cy="78.801" rx="3.769" ry="3.769" style="fill:rgb(245,233,210);stroke:rgb(224,170,0);stroke-width:0.56px;stroke-linecap:butt;stroke-linejoin:miter;stroke-miterlimit:4;"/>
    </g>
    <g transform="matrix(1,0,0,1,0,13.093)">
        <path d="M518.238,72.694L521.681,72.694L521.681,133.213L518.061,133.213" style="fill:none;fill-rule:nonzero;stroke:black;stroke-width:0.56px;stroke-linecap:butt;stroke-linejoin:miter;stroke-miterlimit:4;"/>
    </g>
    <g transform="matrix(1,0,0,1,0,13.093)">
        <path d="M509.665,72.694L506.223,72.694L506.223,133.213L509.842,133.213" style="fill:none;fill-rule:nonzero;stroke:black;stroke-width:0.56px;stroke-linecap:butt;stroke-linejoin:miter;stroke-miterlimit:4;"/>
    </g>
    <g transform="matrix(1,0,0,1,0,13.094)">
        <path d="M524.952,102.953L540.44,102.953" style="fill:none;fill-rule:nonzero;stroke:black;stroke-width:1.13px;stroke-linecap:butt;stroke-linejoin:miter;stroke-miterlimit:4;"/>
    </g>
    <g transform="matrix(1,0,0,1,0,13.094)">
        <path d="M539.877,105.653L545.277,102.953L539.877,100.253L539.877,105.653Z" style="fill-rule:nonzero;"/>
    </g>
    <g transform="matrix(1,0,0,1,0,14.7192)">
        <path d="M556.614,81.094L556.614,123.187L609.559,123.187" style="fill:none;fill-rule:nonzero;stroke:rgb(88,46,145);stroke-width:1.13px;stroke-linecap:butt;stroke-linejoin:miter;stroke-miterlimit:4;"/>
    </g>
    <g transform="matrix(1,0,0,1,0,56.8124)">
        <path d="M608.997,83.794L614.397,81.094L608.997,78.394L608.997,83.794Z" style="fill:rgb(88,46,145);fill-rule:nonzero;"/>
    </g>
    <g transform="matrix(1,0,0,1,0,-31.648)">
        <path d="M559.314,128.024L556.614,122.624L553.914,128.024L559.314,128.024Z" style="fill:rgb(88,46,145);fill-rule:nonzero;"/>
    </g>
    <g transform="matrix(1,0,0,1,0,15.5282)">
        <path d="M547.998,118.037C550.242,118.134 552.487,118.212 554.732,118.272C557.463,118.346 560.246,118.382 562.802,117.403C565.715,116.286 567.951,114.012 569.963,111.634C575.825,104.706 580.363,96.52 587.77,91.225C591.275,88.72 595.268,86.994 599.465,86.018C602.015,85.425 604.624,85.114 607.243,85.09" style="fill:none;fill-rule:nonzero;stroke:rgb(88,46,145);stroke-width:1.13px;stroke-linecap:butt;stroke-linejoin:miter;stroke-miterlimit:4;"/>
    </g>
    <g transform="matrix(1,0,0,1,0,35.0837)">
        <path d="M556.25,81.239L578.563,81.239L578.563,102.677" style="fill:none;fill-rule:nonzero;stroke:black;stroke-width:0.56px;stroke-linecap:butt;stroke-linejoin:miter;stroke-miterlimit:4;stroke-dasharray:0.56,0.56;"/>
    </g>
    <g transform="matrix(9.4155,0,0,-16.2974,280.058,98.8576)">
        <rect x="0.06" y="-0.465" width="0.881" height="0.931" style="fill:url(#_Linear7);"/>
    </g>
    <g transform="matrix(9.4155,0,0,-16.2974,291.348,98.8576)">
        <rect x="0.06" y="-0.465" width="0.881" height="0.931" style="fill:url(#_Linear8);"/>
    </g>
    <g transform="matrix(1,0,0,1,0,-21.284)">
        <path d="M323.272,120.142L303.35,132.516L303.35,107.768L323.272,120.142Z" style="fill:rgb(133,111,175);fill-rule:nonzero;"/>
    </g>
    <defs>
        <linearGradient id="_Linear1" x1="0" y1="0" x2="1" y2="0" gradientUnits="userSpaceOnUse" gradientTransform="matrix(1,0,0,-1,0,-2.45438e-05)"><stop offset="0" style="stop-color:white;stop-opacity:1"/><stop offset="1" style="stop-color:rgb(82,46,145);stop-opacity:1"/></linearGradient>
        <linearGradient id="_Linear2" x1="0" y1="0" x2="1" y2="0" gradientUnits="userSpaceOnUse" gradientTransform="matrix(1,0,0,-1,0,-2.45438e-05)"><stop offset="0" style="stop-color:rgb(82,46,145);stop-opacity:1"/><stop offset="1" style="stop-color:rgb(133,111,175);stop-opacity:1"/></linearGradient>
        <linearGradient id="_Linear7" x1="0" y1="0" x2="1" y2="0" gradientUnits="userSpaceOnUse" gradientTransform="matrix(1,0,0,-1,0,-2.45438e-05)"><stop offset="0" style="stop-color:white;stop-opacity:1"/><stop offset="1" style="stop-color:rgb(82,46,145);stop-opacity:1"/></linearGradient>
        <linearGradient id="_Linear8" x1="0" y1="0" x2="1" y2="0" gradientUnits="userSpaceOnUse" gradientTransform="matrix(1,0,0,-1,0,-2.45438e-05)"><stop offset="0" style="stop-color:rgb(82,46,145);stop-opacity:1"/><stop offset="1" style="stop-color:rgb(133,111,175);stop-opacity:1"/></linearGradient>
    </defs>
</svg>
