<?xml version="1.0" encoding="UTF-8" standalone="no"?>
<!DOCTYPE svg PUBLIC "-//W3C//DTD SVG 1.1//EN" "http://www.w3.org/Graphics/SVG/1.1/DTD/svg11.dtd">
<svg width="100%" height="100%" viewBox="0 0 1000 1600" version="1.1" xmlns="http://www.w3.org/2000/svg" xmlns:xlink="http://www.w3.org/1999/xlink" xml:space="preserve" xmlns:serif="http://www.serif.com/" style="fill-rule:evenodd;clip-rule:evenodd;stroke-linejoin:round;stroke-miterlimit:2;">
    <g transform="matrix(1,0,0,1,-15.5325,-770.735)">
        <path d="M920.471,799.558C916.101,799.558 911.744,801.21 908.41,804.545C903.815,809.14 902.472,815.7 904.21,821.519C897.796,825.014 890.871,827.423 883.673,828.667C876.273,829.947 868.703,829.956 861.295,828.716C860.821,825.12 859.268,821.678 856.506,818.915C849.837,812.246 839.027,812.246 832.358,818.915C825.69,825.584 825.69,836.393 832.358,843.062C834.73,845.433 837.615,846.897 840.661,847.582C840.626,854.452 839.361,861.274 836.928,867.7C834.578,873.905 831.163,879.652 826.856,884.698C820.369,881.132 812.063,882.001 806.565,887.499C799.896,894.168 799.896,905.002 806.565,911.67C813.234,918.339 824.044,918.339 830.713,911.67C831.326,911.057 831.857,910.382 832.358,909.705C837.412,912.93 841.909,916.948 845.696,921.594C849.331,926.053 852.247,931.035 854.368,936.382C854.16,936.57 853.93,936.723 853.73,936.923C847.061,943.591 847.061,954.401 853.73,961.07C860.397,967.738 871.208,967.738 877.876,961.07C881.172,957.774 882.825,953.451 882.863,949.131C888.736,945.371 895.299,942.804 902.17,941.614C909.171,940.403 916.36,940.63 923.271,942.278C923.817,945.71 925.342,949.016 927.988,951.661C934.656,958.33 945.467,958.33 952.134,951.661C958.803,944.993 958.803,934.183 952.134,927.514C949.596,924.976 946.476,923.428 943.194,922.823C942.84,916.582 943.73,910.33 945.846,904.448C948.083,898.235 951.618,892.561 956.213,887.818C962.764,891.699 971.337,890.896 976.97,885.263C983.639,878.595 983.639,867.785 976.97,861.117C970.301,854.448 959.491,854.448 952.822,861.117C952.447,861.492 952.172,861.921 951.84,862.32C946.549,858.807 941.786,854.549 937.691,849.694C933.295,844.483 929.71,838.64 927.078,832.352C929.077,831.519 930.932,830.316 932.556,828.692C939.225,822.023 939.225,811.213 932.556,804.545C929.223,801.21 924.841,799.558 920.471,799.558ZM891.779,841.121C903.165,841.121 914.535,845.478 923.222,854.165C940.596,871.538 940.596,899.701 923.222,917.075C905.848,934.448 877.687,934.448 860.313,917.075C842.939,899.701 842.939,871.538 860.313,854.165C869,845.478 880.395,841.121 891.779,841.121ZM891.779,856.351C884.403,856.351 877.02,859.149 871.391,864.777C860.136,876.033 860.136,894.298 871.391,905.554C882.646,916.81 900.887,916.81 912.144,905.554C923.399,894.298 923.399,876.033 912.144,864.777C906.515,859.149 899.156,856.351 891.779,856.351Z" style="fill:rgb(88,46,145);fill-rule:nonzero;"/>
    </g>
    <g transform="matrix(1,0,0,1,-15.5325,-3.43857)">
        <clipPath id="_clip1">
            <path d="M324.486,170.926L324.486,192.059L302.2,192.059L302.2,193.212L302.2,193.212C307.367,195.65 311.797,199.308 314.842,204.163L315.264,204.835C318.082,209.766 319.491,215.498 319.491,222.03C319.491,232.149 315.937,240.25 308.828,246.333C301.72,252.417 290.865,255.459 276.264,255.459L271.605,255.331C268.227,255.331 264.891,254.795 261.615,254.064L258.396,253.346C255.451,255.267 253.978,257.957 253.978,261.415L254.084,262.471C254.081,264.452 255.427,265.865 256.764,267.082C258.096,268.083 259.712,268.384 261.295,268.726C262.15,268.911 261.568,268.803 263.057,268.937C265.03,269.115 264.022,269.058 266.081,269.1L295.284,269.1C301.743,269.158 308.326,269.699 314.398,272.102C316.306,272.856 318.024,274.023 319.837,274.983L322.084,276.784C327.656,281.908 330.442,289.144 330.442,298.494C330.442,303.873 329.513,308.612 327.656,312.711C325.799,316.81 322.757,320.3 318.53,323.182C314.304,326.063 308.7,328.241 301.72,329.714C294.739,331.187 286.126,331.923 275.88,331.923C267.17,331.923 259.774,331.379 253.69,330.29C247.555,329.019 250.755,329.83 244.113,327.759C241.218,326.857 242.634,327.4 239.867,326.126L238.896,325.679C235.118,323.694 232.364,321.26 230.635,318.379C229.236,315.982 228.329,313.293 228.162,310.501L228.041,308.484C228.042,302.849 229.707,298.43 233.037,295.228C236.367,292.026 240.978,290.041 246.869,289.272L246.869,287.159L246.869,287.159L246.869,287.159C242.003,286.262 238.352,284.181 235.919,280.915C234.085,278.291 232.694,275.39 232.457,272.102L232.268,269.484C232.268,266.794 232.813,264.457 233.901,262.472C234.99,260.486 236.399,258.757 238.128,257.284C239.857,255.811 241.874,254.627 244.18,253.73C246.485,252.834 248.791,252.129 251.096,251.617L251.096,250.848L251.096,250.848L251.096,250.848C244.948,248.031 240.401,244.156 237.456,239.225C236.321,237.158 236.694,238.001 236.183,236.768C234.403,232.473 235.071,234.538 234.062,230.613C233.195,227.841 233.119,224.908 233.037,222.03C233.037,211.784 236.591,203.555 243.699,197.343C250.808,191.131 261.663,188.025 276.264,188.025C282.924,188.025 288.624,188.665 293.363,189.946L293.362,186.104C293.363,180.724 294.675,176.85 297.301,174.48C299.927,172.111 303.673,170.926 308.54,170.926L324.486,170.926ZM288.175,293.307L253.593,293.307C252.313,294.588 251.384,296.029 250.808,297.63C250.231,299.231 249.943,300.799 249.943,302.337L249.961,302.658C249.941,306.177 251.872,308.727 254.746,310.502C257.948,312.231 263.392,313.095 271.077,313.095L282.604,313.095C290.289,313.095 295.732,312.231 298.934,310.502C302.136,308.773 303.737,306.051 303.737,302.337C303.737,299.391 302.584,297.149 300.279,295.612L300.278,295.612C298.375,294.337 296.122,294.049 293.93,293.631C290.244,293.342 291.484,293.364 290.219,293.342L288.175,293.307ZM276.263,206.853C270.628,206.853 266.434,208.037 263.68,210.407C260.926,212.776 259.549,216.202 259.549,220.685L259.549,222.991L259.58,223.759C259.569,227.473 261.051,230.722 263.68,233.269C266.434,235.639 270.628,236.823 276.264,236.823C281.899,236.823 286.094,235.639 288.848,233.269C291.602,230.9 292.978,227.474 292.978,222.991L292.978,220.685C292.978,216.202 291.602,212.776 288.848,210.407C287.35,209.273 288.157,209.783 286.415,208.892C283.335,207.151 279.719,206.947 276.264,206.853L276.263,206.853ZM516.799,154.788C521.867,154.927 523.935,154.854 529.64,155.882C532.271,156.357 534.828,157.179 537.421,157.827C545.219,161.007 542.316,159.512 546.402,161.74L547.922,162.569C552.966,165.849 550.13,163.827 556.229,168.909C561.608,173.519 565.255,179.713 568.479,185.911L544.656,199.552C542.748,194.598 539.626,190.275 535.674,186.755L535.05,186.2C530.695,182.55 524.611,180.724 516.799,180.724C507.705,180.724 500.469,183.35 495.089,188.601C489.71,193.853 487.02,202.114 487.02,213.385L487.019,234.902L487.136,238.638C487.272,246.451 489.93,253.78 495.089,259.59C500.469,264.905 507.705,267.563 516.799,267.563C520.385,267.563 523.778,267.147 526.981,266.314C530.183,265.481 533,264.201 535.435,262.472C537.867,260.743 539.756,258.661 541.101,256.228C542.446,253.794 543.119,250.912 543.119,247.582L543.119,240.858L543.119,240.858L543.119,240.858L518.144,240.858L518.144,216.459L570.976,216.459L570.976,291.193L546.385,291.193L546.385,269.868L546.385,269.868L546.385,269.868L545.424,269.868C544.4,276.656 540.941,282.292 535.05,286.775C529.157,291.258 521.153,293.499 511.035,293.499L508.246,293.432C508.009,293.426 508.2,293.432 507.675,293.38C501.365,293.144 495.322,291.464 489.518,289.08L487.985,288.351C485.712,287.268 487.355,288.082 483.195,285.651C478.909,283.16 475.35,279.649 472.034,276.016C469.846,273.341 470.756,274.579 469.229,272.36C465.864,267.773 463.181,262.655 461.294,257.284L460.315,254.499C457.497,245.917 456.088,235.991 456.088,224.72C456.088,213.449 457.561,203.459 460.507,194.749C463.453,186.04 467.584,178.739 472.899,172.847C478.214,166.956 484.586,162.473 492.015,159.399C499.443,156.325 507.705,154.788 516.799,154.788L516.799,154.788ZM775.392,157.094C781.54,157.094 787.112,158.118 792.107,160.168C798.049,162.966 794.618,161.116 802.103,166.237L804.882,168.909C808.405,172.687 811.127,177.202 813.048,182.453C814.969,187.705 815.93,193.532 815.93,199.936C815.93,209.03 813.912,216.971 809.877,223.759C805.843,230.548 799.727,235.479 791.531,238.553L817.851,291.193L785.383,291.193L761.944,242.011L761.944,242.011L761.944,242.011L741.003,242.011L741.003,291.193L711.801,291.193L711.801,157.094L775.392,157.094ZM771.742,182.453L741.003,182.453L741.003,217.419L741.003,217.419L741.003,217.419L771.742,217.419C776.097,217.419 779.522,216.299 782.02,214.057C784.517,211.816 785.767,208.518 785.767,204.163L785.767,195.71C785.767,191.355 784.517,188.057 782.02,185.816C781.693,185.553 781.367,185.29 781.04,185.028L781.04,185.028C778.264,183.072 775.055,182.563 771.742,182.453ZM688.362,157.094L688.362,183.03L628.612,183.03L628.612,210.503L628.613,210.503L628.613,210.503L679.524,210.503L679.524,236.247L628.612,236.247L628.612,291.193L599.41,291.193L599.41,157.094L688.362,157.094ZM435.915,157.094L435.915,183.03L373.861,183.03L373.861,210.503L373.861,210.503L373.861,210.503L427.078,210.503L427.078,236.247L373.861,236.247L373.861,265.257L373.861,265.257L373.861,265.257L435.915,265.257L435.915,291.193L344.659,291.193L344.659,157.094L435.915,157.094Z" clip-rule="nonzero"/>
        </clipPath>
        <g clip-path="url(#_clip1)">
            <g transform="matrix(1.53696,0,0,-1.53696,61.425,331.923)">
                <clipPath id="_clip2">
                    <path d="M171.156,104.75L171.156,91L156.656,91L156.656,90.25C160.49,88.417 163.323,85.896 165.156,82.688C166.99,79.479 167.906,75.75 167.906,71.5C167.906,64.917 165.594,59.646 160.969,55.688C156.344,51.729 149.281,49.75 139.781,49.75C135.531,49.75 131.656,50.208 128.157,51.125C126.24,49.875 125.281,48.125 125.281,45.875C125.281,44.292 125.886,43.063 127.094,42.188C128.302,41.313 130.323,40.875 133.156,40.875L152.156,40.875C160.156,40.875 165.969,39.208 169.594,35.875C173.219,32.542 175.031,27.833 175.031,21.75C175.031,18.25 174.427,15.167 173.219,12.5C172.011,9.833 170.031,7.563 167.281,5.688C164.531,3.813 160.886,2.396 156.344,1.438C151.802,0.479 146.198,0 139.531,0C133.865,0 129.052,0.354 125.094,1.063C121.136,1.771 117.927,2.771 115.469,4.063C113.011,5.354 111.219,6.938 110.094,8.813C108.969,10.688 108.407,12.833 108.407,15.25C108.407,18.917 109.49,21.792 111.656,23.875C113.823,25.958 116.823,27.25 120.656,27.75L120.656,29.125C117.49,29.708 115.115,31.063 113.531,33.188C111.948,35.313 111.156,37.792 111.156,40.625C111.156,42.375 111.511,43.896 112.219,45.188C112.927,46.479 113.844,47.604 114.969,48.563C116.094,49.521 117.406,50.292 118.907,50.875C120.406,51.458 121.906,51.917 123.406,52.25L123.406,52.75C119.406,54.583 116.448,57.104 114.531,60.313C112.615,63.521 111.656,67.25 111.656,71.5C111.656,78.167 113.969,83.521 118.594,87.563C123.219,91.604 130.281,93.625 139.781,93.625C144.115,93.625 147.823,93.208 150.906,92.375L150.906,94.875C150.906,98.375 151.761,100.896 153.469,102.438C155.177,103.979 157.615,104.75 160.781,104.75L171.156,104.75ZM147.531,25.125L125.031,25.125C124.198,24.292 123.594,23.354 123.219,22.313C122.844,21.271 122.657,20.25 122.657,19.25C122.657,16.833 123.698,15.063 125.781,13.938C127.865,12.813 131.406,12.25 136.406,12.25L143.906,12.25C148.906,12.25 152.448,12.813 154.531,13.938C156.615,15.063 157.656,16.833 157.656,19.25C157.656,21.167 156.906,22.625 155.406,23.625C153.906,24.625 151.281,25.125 147.531,25.125ZM139.781,81.375C136.115,81.375 133.386,80.604 131.594,79.063C129.802,77.521 128.906,75.292 128.906,72.375L128.906,70.875C128.906,67.958 129.802,65.729 131.594,64.188C133.386,62.646 136.115,61.875 139.781,61.875C143.448,61.875 146.177,62.646 147.969,64.188C149.761,65.729 150.656,67.958 150.656,70.875L150.656,72.375C150.656,75.292 149.761,77.521 147.969,79.063C146.177,80.604 143.448,81.375 139.781,81.375ZM296.282,115.25C304.115,115.25 310.865,113.563 316.532,110.188C322.198,106.813 326.657,101.75 329.907,95L314.407,86.125C313.073,89.542 310.99,92.438 308.157,94.813C305.323,97.188 301.365,98.375 296.282,98.375C290.365,98.375 285.657,96.667 282.157,93.25C278.657,89.833 276.906,84.458 276.906,77.125L276.906,63.125C276.906,55.875 278.657,50.521 282.157,47.063C285.657,43.604 290.365,41.875 296.282,41.875C298.615,41.875 300.823,42.146 302.907,42.688C304.99,43.229 306.823,44.063 308.407,45.188C309.99,46.313 311.219,47.667 312.094,49.25C312.969,50.833 313.407,52.708 313.407,54.875L313.407,59.25L297.157,59.25L297.157,75.125L331.532,75.125L331.532,26.5L315.532,26.5L315.532,40.375L314.907,40.375C314.24,35.958 311.99,32.292 308.157,29.375C304.323,26.458 299.115,25 292.532,25C287.532,25 282.865,25.958 278.532,27.875C274.198,29.792 270.406,32.625 267.156,36.375C263.906,40.125 261.365,44.792 259.531,50.375C257.698,55.958 256.781,62.417 256.781,69.75C256.781,77.083 257.74,83.583 259.656,89.25C261.573,94.917 264.261,99.667 267.719,103.5C271.177,107.333 275.323,110.25 280.157,112.25C284.99,114.25 290.365,115.25 296.282,115.25ZM464.532,113.75C468.532,113.75 472.157,113.083 475.407,111.75C478.657,110.417 481.428,108.521 483.719,106.063C486.011,103.604 487.782,100.667 489.032,97.25C490.282,93.833 490.907,90.042 490.907,85.875C490.907,79.958 489.594,74.792 486.969,70.375C484.344,65.958 480.365,62.75 475.032,60.75L492.157,26.5L471.032,26.5L455.782,58.5L442.157,58.5L442.157,26.5L423.157,26.5L423.157,113.75L464.532,113.75ZM462.157,97.25L442.157,97.25L442.157,74.5L462.157,74.5C464.99,74.5 467.219,75.229 468.844,76.688C470.469,78.146 471.282,80.292 471.282,83.125L471.282,88.625C471.282,91.458 470.469,93.604 468.844,95.063C467.219,96.521 464.99,97.25 462.157,97.25ZM407.907,113.75L407.907,96.875L369.032,96.875L369.032,79L402.157,79L402.157,62.25L369.032,62.25L369.032,26.5L350.032,26.5L350.032,113.75L407.907,113.75ZM243.656,113.75L243.656,96.875L203.281,96.875L203.281,79L237.906,79L237.906,62.25L203.281,62.25L203.281,43.375L243.656,43.375L243.656,26.5L184.281,26.5L184.281,113.75L243.656,113.75Z" clip-rule="nonzero"/>
                </clipPath>
                <g clip-path="url(#_clip2)">
                    <rect x="0" y="0" width="598.939" height="194.97" style="fill:url(#_Linear3);"/>
                </g>
            </g>
        </g>
    </g>
    <g transform="matrix(1,0,0,1,-15.5325,-3.43857)">
        <clipPath id="_clip4">
            <path d="M90.627,157.093L90.627,265.257L90.627,265.257L90.627,265.257L141.731,265.257L141.731,291.193L61.425,291.193L61.425,157.093L90.627,157.093Z" clip-rule="nonzero"/>
        </clipPath>
        <g clip-path="url(#_clip4)">
            <g transform="matrix(1.53696,0,0,-1.53696,61.425,331.923)">
                <clipPath id="_clip5">
                    <path d="M19,113.75L19,43.375L52.25,43.375L52.25,26.5L0,26.5L0,113.75L19,113.75Z" clip-rule="nonzero"/>
                </clipPath>
                <g clip-path="url(#_clip5)">
                    <rect x="0" y="0" width="598.939" height="194.97" style="fill:url(#_Linear6);"/>
                </g>
            </g>
        </g>
    </g>
    <g transform="matrix(1,0,0,1,-15.5325,-745.519)">
        <path d="M167.259,844.967C160.898,844.967 154.556,847.389 149.702,852.242C139.996,861.948 139.997,877.702 149.702,887.408C159.408,897.114 175.163,897.114 184.868,887.408C194.574,877.702 194.574,861.948 184.868,852.242C180.015,847.389 173.62,844.967 167.259,844.967ZM167.259,860.098C169.745,860.098 172.269,861.048 174.166,862.945C177.959,866.738 177.959,872.912 174.166,876.705C170.372,880.499 164.198,880.499 160.405,876.705C156.612,872.912 156.612,866.738 160.405,862.945C162.302,861.048 164.773,860.098 167.259,860.098Z" style="fill:rgb(88,46,145);fill-rule:nonzero;"/>
    </g>
    <g transform="matrix(-0.707107,-0.707107,-0.707107,0.707107,913.594,-159.029)">
        <ellipse cx="225.233" cy="770.223" rx="4.238" ry="4.238" style="fill:rgb(88,46,145);"/>
    </g>
    <g transform="matrix(-0.707107,-0.707107,-0.707107,0.707107,839.615,-189.672)">
        <circle cx="181.897" cy="770.223" r="2.702" style="fill:rgb(88,46,145);"/>
    </g>
    <g transform="matrix(-0.707107,-0.707107,-0.707107,0.707107,862.223,-191.066)">
        <ellipse cx="192.912" cy="775.603" rx="3.47" ry="3.47" style="fill:rgb(88,46,145);"/>
    </g>
    <g transform="matrix(-0.707095,-0.707119,-0.707119,0.707095,875.328,-162.575)">
        <ellipse cx="205.36" cy="764.076" rx="4.238" ry="4.238" style="fill:rgb(88,46,145);"/>
    </g>
    <g transform="matrix(-0.707107,-0.707107,-0.707107,0.707107,883.923,-185.151)">
        <ellipse cx="204.987" cy="777.14" rx="4.238" ry="4.238" style="fill:rgb(88,46,145);"/>
    </g>
    <g transform="matrix(-0.707107,-0.707107,-0.707107,0.707107,856.47,-173.468)">
        <circle cx="193.68" cy="765.613" r="2.701" style="fill:rgb(88,46,145);"/>
    </g>
    <g transform="matrix(-0.707111,-0.707102,-0.707102,0.707111,910.765,-186.842)">
        <ellipse cx="218.06" cy="783.542" rx="5.775" ry="5.775" style="fill:rgb(88,46,145);"/>
    </g>
    <g transform="matrix(-0.707098,-0.707116,-0.707116,0.707098,895.986,-164.778)">
        <ellipse cx="215.233" cy="769.455" rx="2.701" ry="2.702" style="fill:rgb(88,46,145);"/>
    </g>
    <g transform="matrix(-0.707102,-0.707112,-0.707112,0.707102,893.608,-141.687)">
        <ellipse cx="218.829" cy="757.415" rx="5.007" ry="5.007" style="fill:rgb(88,46,145);"/>
    </g>
    <g transform="matrix(1,0,0,1,-15.5325,-607.29)">
        <path d="M171.354,768.509C168.326,768.565 165.26,769.218 162.324,770.526C150.581,775.76 145.323,789.57 150.557,801.313L165.783,835.511L208.385,816.491L193.159,782.341C189.234,773.534 180.439,768.341 171.354,768.509ZM173.179,776.001C180.289,775.873 187.112,779.962 190.182,786.856L156.849,801.697C152.756,792.505 156.926,781.679 166.119,777.586C168.417,776.563 170.809,776.044 173.179,776.001Z" style="fill:rgb(88,46,145);fill-rule:nonzero;"/>
    </g>
    <g transform="matrix(1,0,0,1,-15.5325,-3.43857)">
        <clipPath id="_clip7">
            <path d="M165.783,230.842L210.499,244.147L199.836,280.025C196.773,289.647 187.993,296.588 177.765,296.699C176.218,296.716 174.683,296.429 173.142,296.294L170.826,295.731C158.503,292.065 151.454,279.044 155.12,266.721L165.783,230.842ZM160.691,265.904L160.691,265.904C159.123,270.685 159.638,275.663 161.748,279.833C163.858,284.004 167.534,287.391 172.315,288.959C177.095,290.527 182.074,290.013 186.243,287.902C190.412,285.792 193.801,282.068 195.369,277.287L160.691,265.904Z" clip-rule="nonzero"/>
        </clipPath>
        <g clip-path="url(#_clip7)">
            <g transform="matrix(1.53696,0,0,-1.53696,61.425,331.923)">
                <clipPath id="_clip8">
                    <path d="M67.899,65.767L96.992,57.11L90.055,33.767C87.67,25.749 79.198,21.162 71.18,23.548C63.162,25.933 58.576,34.405 60.961,42.423L67.899,65.767ZM64.586,42.954C63.566,39.844 63.901,36.605 65.274,33.892C66.646,31.178 69.038,28.974 72.149,27.954C75.259,26.934 78.499,27.268 81.211,28.642C83.923,30.015 86.128,32.437 87.149,35.548L64.586,42.954Z" clip-rule="nonzero"/>
                </clipPath>
                <g clip-path="url(#_clip8)">
                    <rect x="0" y="0" width="598.939" height="194.97" style="fill:url(#_Linear9);"/>
                </g>
            </g>
        </g>
    </g>
    <defs>
        <linearGradient id="_Linear3" x1="0" y1="0" x2="1" y2="0" gradientUnits="userSpaceOnUse" gradientTransform="matrix(7.30196e-15,-119.25,-119.25,-7.30196e-15,300.282,117.25)"><stop offset="0" style="stop-color:rgb(88,46,145);stop-opacity:1"/><stop offset="1" style="stop-color:rgb(133,111,175);stop-opacity:1"/></linearGradient>
        <linearGradient id="_Linear6" x1="0" y1="0" x2="1" y2="0" gradientUnits="userSpaceOnUse" gradientTransform="matrix(5.58745e-15,-91.25,-91.25,-5.58745e-15,26.1251,115.75)"><stop offset="0" style="stop-color:rgb(88,46,145);stop-opacity:1"/><stop offset="1" style="stop-color:rgb(133,111,175);stop-opacity:1"/></linearGradient>
        <linearGradient id="_Linear9" x1="0" y1="0" x2="1" y2="0" gradientUnits="userSpaceOnUse" gradientTransform="matrix(-39.0516,-0.3416,-0.3416,39.0516,98.187,44.5124)"><stop offset="0" style="stop-color:rgb(88,46,145);stop-opacity:1"/><stop offset="1" style="stop-color:rgb(133,111,175);stop-opacity:1"/></linearGradient>
    </defs>
</svg>
